<svg width="800" height="800" viewBox="0 0 800 800" fill="none" xmlns="http://www.w3.org/2000/svg">
<path d="M667.248 466L536 541.776" stroke="black" stroke-dasharray="11 11"/>
<rect x="0.433013" y="0.75" width="194.144" height="340.279" rx="5.62888" transform="matrix(0.866025 0.5 -2.20305e-08 1 503.058 28.7835)" fill="url(#paint0_linear_2571_4499)" stroke="#2E456D"/>
<rect width="52.0724" height="9.35336" transform="matrix(0.866025 0.5 -2.20305e-08 1 513.333 55.3213)" fill="#CDD1D8"/>
<rect width="52.0724" height="9.35336" transform="matrix(0.866025 0.5 -2.20305e-08 1 599.015 104.927)" fill="#CDD1D8"/>
<rect width="143.468" height="16.5414" transform="matrix(0.866025 0.5 -2.20305e-08 1 513.354 266.313)" fill="#F5F6F7"/>
<rect width="33.3263" height="9.35336" transform="matrix(0.866025 0.5 -2.20305e-08 1 513.333 72.4575)" fill="#CDD1D8"/>
<rect width="33.3263" height="9.35336" transform="matrix(0.866025 0.5 -2.20305e-08 1 513.333 72.4575)" fill="#CDD1D8"/>
<rect width="118.725" height="9.35336" transform="matrix(0.866025 0.5 -2.20305e-08 1 526.861 162.51)" fill="#F5F6F7"/>
<rect width="103.103" height="9.35336" transform="matrix(0.866025 0.5 -2.20305e-08 1 526.499 181.764)" fill="#F5F6F7"/>
<rect width="126.015" height="9.35336" transform="matrix(0.866025 0.5 -2.20305e-08 1 526.498 202.366)" fill="#F5F6F7"/>
<rect width="87.4816" height="9.35336" transform="matrix(0.866025 0.5 -2.20305e-08 1 526.498 222.968)" fill="#F5F6F7"/>
<rect width="7.2783" height="8.17091" rx="2.45155" transform="matrix(-0.866025 -0.5 -2.20305e-08 1 521.077 159.074)" fill="#CDD1D8"/>
<rect width="7.2783" height="8.17091" rx="2.45155" transform="matrix(-0.866025 -0.5 -2.20305e-08 1 521.077 176.669)" fill="#CDD1D8"/>
<rect width="7.2783" height="8.17091" rx="2.45155" transform="matrix(-0.866025 -0.5 -2.20305e-08 1 521.077 194.264)" fill="#CDD1D8"/>
<rect width="7.2783" height="8.17091" rx="2.45155" transform="matrix(-0.866025 -0.5 -2.20305e-08 1 521.077 211.859)" fill="#CDD1D8"/>
<rect width="154.134" height="0.8225" transform="matrix(0.866025 0.5 2.20305e-08 -1 513.333 129.2)" fill="#0066FF"/>
<rect width="154.134" height="0.8225" transform="matrix(0.866025 0.5 2.20305e-08 -1 513.333 129.2)" fill="#CDD1D8"/>
<rect width="154.134" height="0.8225" transform="matrix(0.866025 0.5 2.20305e-08 -1 513.333 255.469)" fill="#CDD1D8"/>
<path d="M503.248 36L372 111.776M670.993 132.848L539.745 208.624" stroke="black" stroke-dasharray="11 11"/>
<rect opacity="0.3" width="321.137" height="321.137" rx="57.026" transform="matrix(0.887472 0.460862 -0.887472 0.460862 400 504)" fill="#ABB5C5"/>
<g opacity="0.1">
<circle cx="3.3664" cy="3.3664" r="3.3664" transform="matrix(0.887472 0.460862 -0.887472 0.460862 399.866 546.58)" fill="#586A8A"/>
<circle cx="3.3664" cy="3.3664" r="3.3664" transform="matrix(0.887472 0.460862 -0.887471 0.460862 507.42 602.433)" fill="#586A8A"/>
<circle cx="3.3664" cy="3.3664" r="3.3664" transform="matrix(0.887472 0.460862 -0.887471 0.460862 453.643 574.506)" fill="#586A8A"/>
<circle cx="3.36641" cy="3.36641" r="3.36641" transform="matrix(0.887473 0.460862 -0.887473 0.460862 561.196 630.358)" fill="#586A8A"/>
<circle cx="3.36641" cy="3.36641" r="3.36641" transform="matrix(0.887473 0.460862 -0.887472 0.460862 417.792 555.889)" fill="#586A8A"/>
<circle cx="3.3664" cy="3.3664" r="3.3664" transform="matrix(0.887472 0.460862 -0.887472 0.460862 525.345 611.741)" fill="#586A8A"/>
<circle cx="3.36641" cy="3.36641" r="3.36641" transform="matrix(0.887471 0.460863 -0.887471 0.460863 471.568 583.815)" fill="#586A8A"/>
<circle cx="3.3664" cy="3.3664" r="3.3664" transform="matrix(0.88747 0.460863 -0.88747 0.460863 579.121 639.667)" fill="#586A8A"/>
<circle cx="3.3664" cy="3.3664" r="3.3664" transform="matrix(0.887472 0.460862 -0.887471 0.460862 435.717 565.197)" fill="#586A8A"/>
<circle cx="3.36641" cy="3.36641" r="3.36641" transform="matrix(0.887472 0.460862 -0.887472 0.460862 543.271 621.05)" fill="#586A8A"/>
<circle cx="3.3664" cy="3.3664" r="3.3664" transform="matrix(0.887472 0.460862 -0.887471 0.460862 489.494 593.124)" fill="#586A8A"/>
<circle cx="3.36641" cy="3.36641" r="3.36641" transform="matrix(0.887473 0.460862 -0.887473 0.460862 597.047 648.977)" fill="#586A8A"/>
<circle cx="3.36641" cy="3.36641" r="3.36641" transform="matrix(0.887472 0.460862 -0.887472 0.460862 328.164 583.815)" fill="#586A8A"/>
<circle cx="3.3664" cy="3.3664" r="3.3664" transform="matrix(0.887472 0.460862 -0.887472 0.460862 435.717 639.667)" fill="#586A8A"/>
<circle cx="3.36641" cy="3.36641" r="3.36641" transform="matrix(0.887471 0.460863 -0.887471 0.460863 381.94 611.741)" fill="#586A8A"/>
<circle cx="3.36641" cy="3.36641" r="3.36641" transform="matrix(0.887471 0.460863 -0.887471 0.460863 489.494 667.593)" fill="#586A8A"/>
<circle cx="3.3664" cy="3.3664" r="3.3664" transform="matrix(0.887472 0.460862 -0.887471 0.460862 346.088 593.124)" fill="#586A8A"/>
<circle cx="3.36641" cy="3.36641" r="3.36641" transform="matrix(0.887471 0.460863 -0.887471 0.460863 453.642 648.976)" fill="#586A8A"/>
<circle cx="3.36641" cy="3.36641" r="3.36641" transform="matrix(0.887471 0.460863 -0.887471 0.460863 399.866 621.05)" fill="#586A8A"/>
<circle cx="3.36641" cy="3.36641" r="3.36641" transform="matrix(0.887471 0.460863 -0.887471 0.460863 507.418 676.902)" fill="#586A8A"/>
<circle cx="3.3664" cy="3.3664" r="3.3664" transform="matrix(0.887472 0.460862 -0.887471 0.460862 364.015 602.432)" fill="#586A8A"/>
<circle cx="3.36641" cy="3.36641" r="3.36641" transform="matrix(0.887471 0.460863 -0.887471 0.460863 471.568 658.284)" fill="#586A8A"/>
<circle cx="3.36641" cy="3.36641" r="3.36641" transform="matrix(0.887471 0.460863 -0.887471 0.460863 417.791 630.358)" fill="#586A8A"/>
<circle cx="3.36641" cy="3.36641" r="3.36641" transform="matrix(0.887472 0.460862 -0.887472 0.460862 525.344 686.21)" fill="#586A8A"/>
<circle cx="3.3664" cy="3.3664" r="3.3664" transform="matrix(0.887472 0.460862 -0.887472 0.460862 364.016 565.198)" fill="#586A8A"/>
<circle cx="3.36641" cy="3.36641" r="3.36641" transform="matrix(0.887471 0.460863 -0.887471 0.460863 471.569 621.05)" fill="#586A8A"/>
<circle cx="3.3664" cy="3.3664" r="3.3664" transform="matrix(0.887472 0.460862 -0.887471 0.460862 417.792 593.124)" fill="#586A8A"/>
<circle cx="3.3664" cy="3.3664" r="3.3664" transform="matrix(0.887472 0.460862 -0.887472 0.460862 525.346 648.976)" fill="#586A8A"/>
<circle cx="3.3664" cy="3.3664" r="3.3664" transform="matrix(0.887472 0.460862 -0.887471 0.460862 381.94 574.507)" fill="#586A8A"/>
<circle cx="3.3664" cy="3.3664" r="3.3664" transform="matrix(0.887472 0.460862 -0.887472 0.460862 489.494 630.359)" fill="#586A8A"/>
<circle cx="3.36641" cy="3.36641" r="3.36641" transform="matrix(0.887473 0.460862 -0.887473 0.460862 435.718 602.433)" fill="#586A8A"/>
<circle cx="3.3664" cy="3.3664" r="3.3664" transform="matrix(0.88747 0.460863 -0.88747 0.460863 543.271 658.285)" fill="#586A8A"/>
<circle cx="3.36641" cy="3.36641" r="3.36641" transform="matrix(0.887472 0.460862 -0.887472 0.460862 399.867 583.815)" fill="#586A8A"/>
<circle cx="3.36641" cy="3.36641" r="3.36641" transform="matrix(0.887471 0.460863 -0.887471 0.460863 507.42 639.668)" fill="#586A8A"/>
<circle cx="3.3664" cy="3.3664" r="3.3664" transform="matrix(0.887472 0.460862 -0.887472 0.460862 453.643 611.742)" fill="#586A8A"/>
<circle cx="3.36641" cy="3.36641" r="3.36641" transform="matrix(0.887472 0.460862 -0.887472 0.460862 561.196 667.594)" fill="#586A8A"/>
<circle cx="3.3664" cy="3.3664" r="3.3664" transform="matrix(0.887472 0.460862 -0.887472 0.460862 292.313 602.432)" fill="#586A8A"/>
<circle cx="3.36641" cy="3.36641" r="3.36641" transform="matrix(0.887471 0.460863 -0.887471 0.460863 399.866 658.284)" fill="#586A8A"/>
<circle cx="3.36641" cy="3.36641" r="3.36641" transform="matrix(0.887471 0.460863 -0.887471 0.460863 346.09 630.358)" fill="#586A8A"/>
<circle cx="3.36641" cy="3.36641" r="3.36641" transform="matrix(0.887471 0.460863 -0.887471 0.460863 453.643 686.21)" fill="#586A8A"/>
<circle cx="3.36641" cy="3.36641" r="3.36641" transform="matrix(0.887471 0.460863 -0.887471 0.460863 310.238 611.741)" fill="#586A8A"/>
<circle cx="3.36641" cy="3.36641" r="3.36641" transform="matrix(0.887471 0.460863 -0.887471 0.460863 417.792 667.593)" fill="#586A8A"/>
<circle cx="3.36641" cy="3.36641" r="3.36641" transform="matrix(0.887472 0.460862 -0.887472 0.460862 364.016 639.667)" fill="#586A8A"/>
<circle cx="3.36641" cy="3.36641" r="3.36641" transform="matrix(0.887471 0.460863 -0.887471 0.460863 471.568 695.52)" fill="#586A8A"/>
<circle cx="3.36641" cy="3.36641" r="3.36641" transform="matrix(0.887472 0.460862 -0.887471 0.460862 328.164 621.05)" fill="#586A8A"/>
<circle cx="3.36641" cy="3.36641" r="3.36641" transform="matrix(0.887471 0.460863 -0.887471 0.460863 435.718 676.902)" fill="#586A8A"/>
<circle cx="3.36641" cy="3.36641" r="3.36641" transform="matrix(0.887471 0.460863 -0.887471 0.460863 381.941 648.976)" fill="#586A8A"/>
<circle cx="3.36641" cy="3.36641" r="3.36641" transform="matrix(0.887471 0.460863 -0.887471 0.460863 489.494 704.828)" fill="#586A8A"/>
<circle cx="3.36641" cy="3.36641" r="3.36641" transform="matrix(0.887472 0.460862 -0.887471 0.460862 256.462 621.051)" fill="#586A8A"/>
<circle cx="3.36641" cy="3.36641" r="3.36641" transform="matrix(0.887471 0.460863 -0.887471 0.460863 364.015 676.903)" fill="#586A8A"/>
<circle cx="3.3664" cy="3.3664" r="3.3664" transform="matrix(0.887472 0.460862 -0.887472 0.460862 310.237 648.977)" fill="#586A8A"/>
<circle cx="3.36641" cy="3.36641" r="3.36641" transform="matrix(0.887471 0.460863 -0.887471 0.460863 417.791 704.829)" fill="#586A8A"/>
<circle cx="3.36641" cy="3.36641" r="3.36641" transform="matrix(0.887472 0.460862 -0.887471 0.460862 274.387 630.36)" fill="#586A8A"/>
<circle cx="3.3664" cy="3.3664" r="3.3664" transform="matrix(0.887472 0.460862 -0.887472 0.460862 381.94 686.212)" fill="#586A8A"/>
<circle cx="3.3664" cy="3.3664" r="3.3664" transform="matrix(0.887472 0.460862 -0.887472 0.460862 328.164 658.286)" fill="#586A8A"/>
<circle cx="3.3664" cy="3.3664" r="3.3664" transform="matrix(0.887473 0.460862 -0.887473 0.460862 435.716 714.138)" fill="#586A8A"/>
<circle cx="3.36641" cy="3.36641" r="3.36641" transform="matrix(0.887471 0.460863 -0.887471 0.460863 292.312 639.668)" fill="#586A8A"/>
<circle cx="3.3664" cy="3.3664" r="3.3664" transform="matrix(0.887472 0.460862 -0.887472 0.460862 399.866 695.52)" fill="#586A8A"/>
<circle cx="3.3664" cy="3.3664" r="3.3664" transform="matrix(0.887472 0.460862 -0.887472 0.460862 346.088 667.594)" fill="#586A8A"/>
<circle cx="3.36641" cy="3.36641" r="3.36641" transform="matrix(0.887471 0.460863 -0.887471 0.460863 453.642 723.447)" fill="#586A8A"/>
<circle cx="3.3664" cy="3.3664" r="3.3664" transform="matrix(0.887472 0.460862 -0.887472 0.460862 220.611 639.668)" fill="#586A8A"/>
<circle cx="3.3664" cy="3.3664" r="3.3664" transform="matrix(0.887472 0.460862 -0.887472 0.460862 328.164 695.52)" fill="#586A8A"/>
<circle cx="3.36641" cy="3.36641" r="3.36641" transform="matrix(0.887471 0.460863 -0.887471 0.460863 274.387 667.594)" fill="#586A8A"/>
<circle cx="3.36641" cy="3.36641" r="3.36641" transform="matrix(0.887472 0.460862 -0.887472 0.460862 381.941 723.446)" fill="#586A8A"/>
<circle cx="3.3664" cy="3.3664" r="3.3664" transform="matrix(0.887472 0.460862 -0.887472 0.460862 238.537 648.977)" fill="#586A8A"/>
<circle cx="3.3664" cy="3.3664" r="3.3664" transform="matrix(0.887472 0.460862 -0.887472 0.460862 346.089 704.829)" fill="#586A8A"/>
<circle cx="3.36641" cy="3.36641" r="3.36641" transform="matrix(0.887472 0.460862 -0.887471 0.460862 292.313 676.903)" fill="#586A8A"/>
<circle cx="3.36641" cy="3.36641" r="3.36641" transform="matrix(0.887471 0.460863 -0.887471 0.460863 399.866 732.755)" fill="#586A8A"/>
<circle cx="3.36641" cy="3.36641" r="3.36641" transform="matrix(0.887471 0.460863 -0.887471 0.460863 256.461 658.285)" fill="#586A8A"/>
<circle cx="3.36641" cy="3.36641" r="3.36641" transform="matrix(0.887471 0.460863 -0.887471 0.460863 364.016 714.138)" fill="#586A8A"/>
<circle cx="3.3664" cy="3.3664" r="3.3664" transform="matrix(0.887472 0.460862 -0.887472 0.460862 310.239 686.211)" fill="#586A8A"/>
<circle cx="3.36641" cy="3.36641" r="3.36641" transform="matrix(0.887471 0.460863 -0.887471 0.460863 417.792 742.064)" fill="#586A8A"/>
<circle cx="3.3664" cy="3.3664" r="3.3664" transform="matrix(0.887472 0.460862 -0.887471 0.460862 381.942 555.89)" fill="#586A8A"/>
<circle cx="3.36641" cy="3.36641" r="3.36641" transform="matrix(0.887471 0.460863 -0.887471 0.460863 489.495 611.742)" fill="#586A8A"/>
<circle cx="3.3664" cy="3.3664" r="3.3664" transform="matrix(0.887472 0.460862 -0.887471 0.460862 435.718 583.816)" fill="#586A8A"/>
<circle cx="3.36641" cy="3.36641" r="3.36641" transform="matrix(0.887472 0.460862 -0.887472 0.460862 543.271 639.668)" fill="#586A8A"/>
<circle cx="3.36641" cy="3.36641" r="3.36641" transform="matrix(0.887472 0.460862 -0.887472 0.460862 399.867 565.199)" fill="#586A8A"/>
<circle cx="3.36641" cy="3.36641" r="3.36641" transform="matrix(0.887472 0.460862 -0.887472 0.460862 507.42 621.051)" fill="#586A8A"/>
<circle cx="3.36641" cy="3.36641" r="3.36641" transform="matrix(0.887471 0.460863 -0.887471 0.460863 453.644 593.125)" fill="#586A8A"/>
<circle cx="3.3664" cy="3.3664" r="3.3664" transform="matrix(0.88747 0.460863 -0.88747 0.460863 561.196 648.977)" fill="#586A8A"/>
<circle cx="3.3664" cy="3.3664" r="3.3664" transform="matrix(0.887472 0.460862 -0.887471 0.460862 417.792 574.508)" fill="#586A8A"/>
<circle cx="3.36641" cy="3.36641" r="3.36641" transform="matrix(0.887471 0.460863 -0.887471 0.460863 525.346 630.36)" fill="#586A8A"/>
<circle cx="3.3664" cy="3.3664" r="3.3664" transform="matrix(0.887472 0.460862 -0.887471 0.460862 471.569 602.434)" fill="#586A8A"/>
<circle cx="3.36641" cy="3.36641" r="3.36641" transform="matrix(0.887473 0.460862 -0.887473 0.460862 579.123 658.286)" fill="#586A8A"/>
<circle cx="3.36641" cy="3.36641" r="3.36641" transform="matrix(0.887472 0.460862 -0.887471 0.460862 310.238 593.124)" fill="#586A8A"/>
<circle cx="3.3664" cy="3.3664" r="3.3664" transform="matrix(0.887472 0.460862 -0.887472 0.460862 417.792 648.976)" fill="#586A8A"/>
<circle cx="3.36641" cy="3.36641" r="3.36641" transform="matrix(0.887473 0.460862 -0.887473 0.460862 364.015 621.05)" fill="#586A8A"/>
<circle cx="3.36641" cy="3.36641" r="3.36641" transform="matrix(0.887471 0.460863 -0.887471 0.460863 471.568 676.902)" fill="#586A8A"/>
<circle cx="3.36641" cy="3.36641" r="3.36641" transform="matrix(0.887472 0.460862 -0.887472 0.460862 328.163 602.433)" fill="#586A8A"/>
<circle cx="3.36641" cy="3.36641" r="3.36641" transform="matrix(0.887473 0.460862 -0.887473 0.460862 435.717 658.285)" fill="#586A8A"/>
<circle cx="3.36641" cy="3.36641" r="3.36641" transform="matrix(0.887471 0.460863 -0.887471 0.460863 381.94 630.359)" fill="#586A8A"/>
<circle cx="3.3664" cy="3.3664" r="3.3664" transform="matrix(0.887472 0.460862 -0.887472 0.460862 489.493 686.211)" fill="#586A8A"/>
<circle cx="3.36641" cy="3.36641" r="3.36641" transform="matrix(0.887471 0.460863 -0.887471 0.460863 346.089 611.741)" fill="#586A8A"/>
<circle cx="3.36641" cy="3.36641" r="3.36641" transform="matrix(0.887473 0.460862 -0.887473 0.460862 453.643 667.594)" fill="#586A8A"/>
<circle cx="3.3664" cy="3.3664" r="3.3664" transform="matrix(0.887472 0.460862 -0.887472 0.460862 399.866 639.667)" fill="#586A8A"/>
<circle cx="3.3664" cy="3.3664" r="3.3664" transform="matrix(0.887472 0.460862 -0.887472 0.460862 507.419 695.519)" fill="#586A8A"/>
<circle cx="3.3664" cy="3.3664" r="3.3664" transform="matrix(0.887472 0.460862 -0.887471 0.460862 346.09 574.507)" fill="#586A8A"/>
<circle cx="3.3664" cy="3.3664" r="3.3664" transform="matrix(0.887472 0.460862 -0.887472 0.460862 453.644 630.359)" fill="#586A8A"/>
<circle cx="3.36641" cy="3.36641" r="3.36641" transform="matrix(0.887471 0.460863 -0.887471 0.460863 399.866 602.433)" fill="#586A8A"/>
<circle cx="3.3664" cy="3.3664" r="3.3664" transform="matrix(0.887472 0.460862 -0.887472 0.460862 507.419 658.285)" fill="#586A8A"/>
<circle cx="3.3664" cy="3.3664" r="3.3664" transform="matrix(0.887472 0.460862 -0.887471 0.460862 364.015 583.816)" fill="#586A8A"/>
<circle cx="3.36641" cy="3.36641" r="3.36641" transform="matrix(0.887471 0.460863 -0.887471 0.460863 471.568 639.668)" fill="#586A8A"/>
<circle cx="3.36641" cy="3.36641" r="3.36641" transform="matrix(0.887471 0.460863 -0.887471 0.460863 417.792 611.742)" fill="#586A8A"/>
<circle cx="3.36641" cy="3.36641" r="3.36641" transform="matrix(0.887472 0.460862 -0.887472 0.460862 525.344 667.594)" fill="#586A8A"/>
<circle cx="3.36641" cy="3.36641" r="3.36641" transform="matrix(0.887472 0.460862 -0.887472 0.460862 381.941 593.124)" fill="#586A8A"/>
<circle cx="3.3664" cy="3.3664" r="3.3664" transform="matrix(0.887472 0.460862 -0.887472 0.460862 489.494 648.977)" fill="#586A8A"/>
<circle cx="3.36641" cy="3.36641" r="3.36641" transform="matrix(0.887471 0.460863 -0.887471 0.460863 435.717 621.05)" fill="#586A8A"/>
<circle cx="3.36641" cy="3.36641" r="3.36641" transform="matrix(0.887472 0.460862 -0.887472 0.460862 543.271 676.902)" fill="#586A8A"/>
<circle cx="3.3664" cy="3.3664" r="3.3664" transform="matrix(0.887472 0.460862 -0.887472 0.460862 274.388 611.742)" fill="#586A8A"/>
<circle cx="3.36641" cy="3.36641" r="3.36641" transform="matrix(0.887473 0.460862 -0.887473 0.460862 381.941 667.594)" fill="#586A8A"/>
<circle cx="3.36641" cy="3.36641" r="3.36641" transform="matrix(0.887472 0.460862 -0.887471 0.460862 328.165 639.668)" fill="#586A8A"/>
<circle cx="3.3664" cy="3.3664" r="3.3664" transform="matrix(0.887472 0.460862 -0.887472 0.460862 435.718 695.52)" fill="#586A8A"/>
<circle cx="3.36641" cy="3.36641" r="3.36641" transform="matrix(0.887471 0.460863 -0.887471 0.460863 292.312 621.051)" fill="#586A8A"/>
<circle cx="3.3664" cy="3.3664" r="3.3664" transform="matrix(0.887472 0.460862 -0.887472 0.460862 399.867 676.903)" fill="#586A8A"/>
<circle cx="3.36641" cy="3.36641" r="3.36641" transform="matrix(0.887473 0.460862 -0.887473 0.460862 346.09 648.977)" fill="#586A8A"/>
<circle cx="3.36641" cy="3.36641" r="3.36641" transform="matrix(0.887473 0.460862 -0.887473 0.460862 453.643 704.829)" fill="#586A8A"/>
<circle cx="3.3664" cy="3.3664" r="3.3664" transform="matrix(0.887472 0.460862 -0.887472 0.460862 310.239 630.36)" fill="#586A8A"/>
<circle cx="3.36641" cy="3.36641" r="3.36641" transform="matrix(0.887471 0.460863 -0.887471 0.460863 417.792 686.212)" fill="#586A8A"/>
<circle cx="3.3664" cy="3.3664" r="3.3664" transform="matrix(0.887472 0.460862 -0.887472 0.460862 364.015 658.285)" fill="#586A8A"/>
<circle cx="3.36641" cy="3.36641" r="3.36641" transform="matrix(0.887471 0.460863 -0.887471 0.460863 471.569 714.138)" fill="#586A8A"/>
<circle cx="3.36641" cy="3.36641" r="3.36641" transform="matrix(0.887472 0.460862 -0.887471 0.460862 238.537 630.358)" fill="#586A8A"/>
<circle cx="3.3664" cy="3.3664" r="3.3664" transform="matrix(0.887472 0.460862 -0.887472 0.460862 346.089 686.21)" fill="#586A8A"/>
<circle cx="3.36641" cy="3.36641" r="3.36641" transform="matrix(0.887471 0.460863 -0.887471 0.460863 292.312 658.284)" fill="#586A8A"/>
<circle cx="3.36641" cy="3.36641" r="3.36641" transform="matrix(0.887472 0.460862 -0.887472 0.460862 399.866 714.137)" fill="#586A8A"/>
<circle cx="3.36641" cy="3.36641" r="3.36641" transform="matrix(0.887471 0.460863 -0.887471 0.460863 256.462 639.667)" fill="#586A8A"/>
<circle cx="3.3664" cy="3.3664" r="3.3664" transform="matrix(0.887472 0.460862 -0.887472 0.460862 364.015 695.52)" fill="#586A8A"/>
<circle cx="3.3664" cy="3.3664" r="3.3664" transform="matrix(0.887472 0.460862 -0.887472 0.460862 310.238 667.593)" fill="#586A8A"/>
<circle cx="3.36641" cy="3.36641" r="3.36641" transform="matrix(0.887472 0.460862 -0.887472 0.460862 417.792 723.445)" fill="#586A8A"/>
<circle cx="3.3664" cy="3.3664" r="3.3664" transform="matrix(0.887472 0.460862 -0.887472 0.460862 274.387 648.976)" fill="#586A8A"/>
<circle cx="3.36641" cy="3.36641" r="3.36641" transform="matrix(0.887471 0.460863 -0.887471 0.460863 381.94 704.829)" fill="#586A8A"/>
<circle cx="3.36641" cy="3.36641" r="3.36641" transform="matrix(0.887471 0.460863 -0.887471 0.460863 328.164 676.901)" fill="#586A8A"/>
<circle cx="3.36641" cy="3.36641" r="3.36641" transform="matrix(0.887471 0.460863 -0.887471 0.460863 435.717 732.754)" fill="#586A8A"/>
<circle cx="3.3664" cy="3.3664" r="3.3664" transform="matrix(0.887472 0.460862 -0.887472 0.460862 202.687 648.976)" fill="#586A8A"/>
<circle cx="3.36641" cy="3.36641" r="3.36641" transform="matrix(0.887472 0.460862 -0.887471 0.460862 310.24 704.828)" fill="#586A8A"/>
<circle cx="3.36641" cy="3.36641" r="3.36641" transform="matrix(0.887472 0.460862 -0.887471 0.460862 256.462 676.902)" fill="#586A8A"/>
<circle cx="3.36641" cy="3.36641" r="3.36641" transform="matrix(0.887471 0.460863 -0.887471 0.460863 364.016 732.754)" fill="#586A8A"/>
<circle cx="3.36641" cy="3.36641" r="3.36641" transform="matrix(0.887471 0.460863 -0.887471 0.460863 220.612 658.285)" fill="#586A8A"/>
<circle cx="3.3664" cy="3.3664" r="3.3664" transform="matrix(0.887471 0.460863 -0.887471 0.460863 328.165 714.137)" fill="#586A8A"/>
<circle cx="3.3664" cy="3.3664" r="3.3664" transform="matrix(0.887472 0.460862 -0.887472 0.460862 274.389 686.21)" fill="#586A8A"/>
<circle cx="3.36641" cy="3.36641" r="3.36641" transform="matrix(0.887472 0.460862 -0.887472 0.460862 381.941 742.062)" fill="#586A8A"/>
<circle cx="3.36641" cy="3.36641" r="3.36641" transform="matrix(0.887471 0.460863 -0.887471 0.460863 238.538 667.593)" fill="#586A8A"/>
<circle cx="3.36641" cy="3.36641" r="3.36641" transform="matrix(0.887471 0.460863 -0.887471 0.460863 346.091 723.446)" fill="#586A8A"/>
<circle cx="3.36641" cy="3.36641" r="3.36641" transform="matrix(0.887471 0.460863 -0.887471 0.460863 292.314 695.52)" fill="#586A8A"/>
<circle cx="3.36641" cy="3.36641" r="3.36641" transform="matrix(0.887471 0.460863 -0.887471 0.460863 399.867 751.372)" fill="#586A8A"/>
</g>
<rect width="212.265" height="444.671" rx="18" transform="matrix(0.857418 0.51462 -2.11919e-08 1 372 62)" fill="#ABB5C5"/>
<path d="M509.883 589C512.753 587.343 517.406 587.343 520.276 589L547.793 604.887C550.184 606.268 550.184 608.506 547.793 609.887L533.043 618.403L496 597.016L509.883 589Z" fill="#ABB5C5"/>
<path d="M373.945 70.0972C376.815 68.4403 381.468 68.4403 384.337 70.0972L416.185 88.4842L397.105 99.4999L360.061 78.1128L373.945 70.0972Z" fill="#ABB5C5"/>
<rect width="214.598" height="444.671" rx="18" transform="matrix(0.857418 0.51462 -2.11919e-08 1 356 70)" fill="white"/>
<rect width="194.771" height="348.36" rx="6.56604" transform="matrix(0.857418 0.51462 -2.11919e-08 1 363 112.385)" fill="#20ACD1"/>
<rect width="54.8157" height="10.6209" rx="5.31045" transform="matrix(0.857418 0.51462 -2.11919e-08 1 411 118)" fill="#CDD2DC"/>
<rect width="10.6339" height="11.5696" rx="5.31694" transform="matrix(-0.889514 -0.456908 0.0660005 0.99782 472.459 153.859)" fill="#CDD2DC"/>
<circle cx="21.362" cy="21.362" r="21.362" transform="matrix(0.866025 0.5 -2.20305e-08 1 411 494)" fill="#ABB5C5"/>
<rect width="6.9282" height="52.3509" rx="3" transform="matrix(0.866025 -0.5 2.20305e-08 1 544 243.464)" fill="#E6E9ED"/>
<rect width="6.9282" height="24.3446" rx="3" transform="matrix(0.866025 -0.5 -2.20305e-08 -1 544 325.809)" fill="#E6E9ED"/>
<rect x="0.428709" y="0.75731" width="191.438" height="347.959" rx="6.06604" transform="matrix(0.857418 0.51462 -2.11919e-08 1 235.061 191.779)" fill="white" stroke="black"/>
<rect opacity="0.6" width="123.627" height="32.5746" rx="6.56604" transform="matrix(0.857418 0.51462 -2.11919e-08 1 248 234)" fill="#CDD1D8"/>
<rect opacity="0.6" width="123.627" height="32.5746" rx="6.56604" transform="matrix(0.857418 0.51462 -2.11919e-08 1 275 307.805)" fill="#CDD1D8"/>
<rect width="79.3078" height="32.5746" rx="6.56604" transform="matrix(0.857418 0.51462 -2.11919e-08 1 275 356.805)" fill="#20ACD1"/>
<rect opacity="0.6" width="27.991" height="32.5746" rx="6.56604" transform="matrix(-0.857418 -0.51462 -2.11919e-08 1 269 302.404)" fill="#CDD1D8"/>
<rect width="27.991" height="32.5746" rx="6.56604" transform="matrix(-0.857418 -0.51462 -2.11919e-08 1 269 351.404)" fill="#20ACD1"/>
<rect opacity="0.6" width="118.962" height="32.5746" rx="6.56604" transform="matrix(0.857418 0.51462 -2.11919e-08 1 275 403.805)" fill="#CDD1D8"/>
<rect opacity="0.6" width="27.991" height="32.5746" rx="6.56604" transform="matrix(-0.857418 -0.51462 -2.11919e-08 1 269 398.404)" fill="#CDD1D8"/>
<path d="M160.422 580.941C160.355 583.033 160.368 584.922 160.475 586.624C160.929 593.798 163.081 597.578 167.784 598.859C175.896 601.073 180.987 595.63 183.392 588.455L183.446 588.301C183.78 587.294 184.154 585.744 184.582 583.761C184.702 583.19 184.835 582.58 184.969 581.939C185.584 578.891 186.265 575.088 186.96 570.806C187.655 566.587 188.363 561.903 189.058 557.014C189.392 554.635 189.726 552.206 190.047 549.762C191.423 539.259 192.613 528.428 193.214 519.668C194.831 496.266 190.047 467.508 190.047 467.508L172.568 466.222C172.568 466.222 156.172 483.202 154.034 504.175C151.696 526.974 163.228 553.864 161.838 565.197C161.076 571.388 160.569 576.599 160.422 580.941Z" fill="#20ACD1"/>
<path d="M160.166 661.638C160.18 661.813 160.18 661.985 160.193 662.155C160.714 670.539 169.239 674.112 170.923 665.223C171.07 664.419 171.217 663.605 171.378 662.77C172.139 658.532 172.941 653.757 174.197 647.078C177.377 630.15 181.467 608.157 183.591 594.612C184.299 590.145 184.781 586.596 184.968 584.451C184.968 584.451 185.048 583.452 184.968 581.938C184.821 579.467 184.219 575.63 182.041 572.511C180.464 570.266 178.072 568.392 174.438 567.672C164.215 565.652 161.489 577.033 160.474 586.624C160.313 588.098 160.206 589.532 160.099 590.865C159.378 600.882 160.006 654.222 160.166 661.638Z" fill="#056983"/>
<path d="M171.298 662.748C171.298 662.748 187.427 667.905 188.443 672.76C189.471 677.614 159.512 676.342 158.149 673.819C156.786 671.296 160.18 662.132 160.18 662.132C160.18 662.132 163.521 669.635 171.298 662.748Z" fill="black"/>
<path d="M184.969 581.938C184.822 579.468 184.221 575.63 182.042 572.511C180.666 561.929 176.35 552.633 173.37 542.251C168.025 523.648 172.568 512.485 172.568 512.485C172.568 512.485 187.481 535.059 187.935 535.678C188.096 535.909 188.991 542.088 190.047 549.761C189.726 552.206 189.392 554.635 189.058 557.014C188.363 561.903 187.655 566.587 186.96 570.806C186.265 575.088 185.584 578.891 184.969 581.938Z" fill="#056983"/>
<path d="M183.592 594.615C183.592 592.569 183.538 590.46 183.445 588.303C183.231 583.258 182.75 577.946 182.042 572.514C184.22 575.633 184.821 579.47 184.968 581.941C184.995 582.438 185.008 582.879 185.008 583.248C185.008 584.003 184.968 584.454 184.968 584.454C184.781 586.599 184.3 590.148 183.592 594.615Z" fill="#056983"/>
<path d="M201.699 466.471C201.699 466.471 210.451 492.89 211.48 516.332C212.509 539.773 211.026 578.47 209.436 585.912C207.846 593.353 203.409 599.432 195.098 598.316C186.799 597.198 185.196 587.648 185.436 565.696C185.543 554.26 171.566 528.976 171.325 506.037C171.098 484.936 184.635 465.604 184.635 465.604L201.699 466.471Z" fill="#20ACD1"/>
<path d="M209.89 583.928C209.89 583.928 209.77 569.418 197.823 568.425C185.891 567.433 185.543 583.06 185.77 593.107C185.998 603.154 191.677 656.136 192.545 663.494C193.561 672.175 202.728 675.063 203.569 665.85C204.024 660.889 204.371 655.555 205.106 647.431C207.191 624.565 209.997 592.61 209.89 583.928Z" fill="#20ACD1"/>
<path d="M175.32 390.858C178.66 403.204 188.616 410.883 197.569 408.009C206.522 405.136 211.078 392.797 207.738 380.452C204.41 368.106 194.442 360.427 185.489 363.301C176.549 366.174 171.992 378.513 175.32 390.858Z" fill="#FFC4C1"/>
<path d="M186.812 424.487H189.391C192.264 424.487 194.589 421.952 194.589 418.826V400.631C194.589 397.503 192.264 394.969 189.391 394.969H186.812C183.939 394.969 181.614 397.503 181.614 400.631V418.826C181.614 421.952 183.939 424.487 186.812 424.487Z" fill="#FFC4C1"/>
<path d="M172.287 466.411C184.139 470.968 193.64 469.81 198.504 468.606C200.776 468.041 202.032 467.466 202.032 467.466C202.032 467.466 202.994 463.028 203.783 459.926C204.117 458.609 204.491 457.099 204.878 455.461C205.413 453.226 205.961 450.76 206.468 448.245C208.206 439.735 209.475 430.663 207.671 428.086C205.226 424.583 199.279 421.192 195.645 419.346C193.867 418.447 192.651 417.915 192.651 417.915C192.651 417.915 186.651 416.709 180.197 417.153C175.133 417.501 169.788 418.865 166.834 422.628C160.113 431.186 172.287 466.411 172.287 466.411Z" fill="#CDD2DC"/>
<path d="M216.171 484.486C216.639 486.623 218.549 491.522 223.133 488.898C230.522 484.681 241.426 453.688 240.571 449.019C239.703 444.351 237.137 444.571 232.166 451.335C227.195 458.101 214.1 474.836 216.171 484.486Z" fill="#CDD2DC"/>
<path d="M234.785 447.92C234.504 449.764 238.446 452.637 240.744 450.841C243.029 449.043 249.029 439.008 248.335 436.818C247.64 434.627 242.255 434.802 237.912 442.073C237.912 442.073 239.168 437.115 236.95 437.727C235.881 438.022 235.68 442.046 234.785 447.92Z" fill="#FFC4C1"/>
<path d="M203.716 663.341C203.716 663.341 220.246 666.655 221.716 671.368C223.199 676.081 193.28 678.189 191.69 675.833C190.099 673.476 192.598 663.979 192.598 663.979C192.598 663.979 196.62 671.066 203.716 663.341Z" fill="black"/>
<path d="M177.028 406.018V406.019C178.792 406.727 180.823 406.912 183.095 406.44C202.885 402.348 196.752 391.929 196.752 391.929C196.752 391.929 220.39 387.02 217.678 370.472C215.406 356.581 205.398 363.899 205.398 363.899C205.398 363.899 194.587 349.511 178.779 357.325C178.552 357.438 178.338 357.618 178.097 357.687C169.599 360.059 165.617 367.589 164.788 376.058C163.572 388.445 169.091 402.837 177.028 406.018Z" fill="#663B32"/>
<path d="M189.538 385.583C192.077 384.14 195.645 386.147 197.529 390.063C199.4 393.98 198.865 398.325 196.326 399.767C193.801 401.208 190.219 399.202 188.348 395.286C186.478 391.368 187.012 387.024 189.538 385.583Z" fill="#FFC4C1"/>
<path d="M180.197 417.152C184.981 424.07 193.533 420.395 195.645 419.344C193.867 418.445 192.652 417.913 192.652 417.913C192.652 417.913 186.651 416.707 180.197 417.152Z" fill="#FFC4C1"/>
<path d="M176.175 406.018V406.02C169.654 397.579 178.727 382.978 181.56 371.837C184.406 360.674 177.244 357.698 177.244 357.698C177.244 357.698 167.115 370.527 163.935 376.059C162.719 388.445 168.237 402.838 176.175 406.018Z" fill="#48241C"/>
<path d="M177.245 357.699C172.808 354.475 163.134 353.11 155.049 374.319C146.978 395.529 160.407 409.171 153.352 420.458C146.296 431.744 157.895 439.31 152.443 452.954C146.978 466.598 164.497 474.535 167.343 457.791C170.189 441.047 161.423 434.349 170.871 426.412C180.305 418.473 166.314 398.381 170.75 387.714C175.187 377.048 184.14 362.718 177.245 357.699Z" fill="#663B32"/>
<path d="M196.914 446.254L198.504 468.604C200.775 468.039 202.032 467.464 202.032 467.464C202.032 467.464 202.994 463.026 203.782 459.924C204.116 458.607 204.49 457.097 204.878 455.459L196.914 446.254Z" fill="#586A8A"/>
<path d="M216.211 486.527C211.24 478.06 196.06 450.989 194.616 438.855C193.187 426.722 205.881 423.661 211.226 429.976C216.585 436.293 222.892 467.05 225.391 476.775C228.064 487.226 220.513 493.873 216.211 486.527Z" fill="#CDD2DC"/>
<path d="M365.248 116L234 191.776M532.993 212.848L401.745 288.624" stroke="black" stroke-dasharray="11 11"/>
<path d="M515 554L402 621" stroke="black" stroke-dasharray="11 11"/>
<defs>
<linearGradient id="paint0_linear_2571_4499" x1="-44.0707" y1="448.558" x2="193.769" y2="301.886" gradientUnits="userSpaceOnUse">
<stop stop-color="#F8F8F8"/>
<stop offset="1" stop-color="white"/>
</linearGradient>
</defs>
</svg>
