<svg width="800" height="800" viewBox="0 0 800 800" fill="none" xmlns="http://www.w3.org/2000/svg">
<rect opacity="0.3" width="400.129" height="400.129" rx="69.8261" transform="matrix(0.866025 0.5 -0.866025 0.5 399.521 387)" fill="#CFD9E9"/>
<g opacity="0.2">
<circle cx="4.19446" cy="4.19446" r="4.19446" transform="matrix(0.866025 0.5 -0.866025 0.5 399.36 444.56)" fill="#889FC9"/>
<circle cx="4.19446" cy="4.19446" r="4.19446" transform="matrix(0.866025 0.5 -0.866025 0.5 530.131 520.06)" fill="#889FC9"/>
<circle cx="4.19446" cy="4.19446" r="4.19446" transform="matrix(0.866025 0.5 -0.866025 0.5 464.745 482.31)" fill="#889FC9"/>
<circle cx="4.19446" cy="4.19446" r="4.19446" transform="matrix(0.866025 0.5 -0.866025 0.5 595.515 557.81)" fill="#889FC9"/>
<circle cx="4.19446" cy="4.19446" r="4.19446" transform="matrix(0.866025 0.5 -0.866025 0.5 421.154 457.143)" fill="#889FC9"/>
<circle cx="4.19446" cy="4.19446" r="4.19446" transform="matrix(0.866025 0.5 -0.866025 0.5 551.925 532.644)" fill="#889FC9"/>
<circle cx="4.19446" cy="4.19446" r="4.19446" transform="matrix(0.866025 0.5 -0.866025 0.5 486.54 494.894)" fill="#889FC9"/>
<circle cx="4.19446" cy="4.19446" r="4.19446" transform="matrix(0.866025 0.5 -0.866025 0.5 617.31 570.394)" fill="#889FC9"/>
<circle cx="4.19446" cy="4.19446" r="4.19446" transform="matrix(0.866025 0.5 -0.866025 0.5 442.95 469.727)" fill="#889FC9"/>
<circle cx="4.19446" cy="4.19446" r="4.19446" transform="matrix(0.866025 0.5 -0.866025 0.5 573.721 545.227)" fill="#889FC9"/>
<circle cx="4.19446" cy="4.19446" r="4.19446" transform="matrix(0.866025 0.5 -0.866025 0.5 508.335 507.477)" fill="#889FC9"/>
<circle cx="4.19446" cy="4.19446" r="4.19446" transform="matrix(0.866025 0.5 -0.866025 0.5 639.105 582.977)" fill="#889FC9"/>
<circle cx="4.19446" cy="4.19446" r="4.19446" transform="matrix(0.866025 0.5 -0.866025 0.5 312.18 494.893)" fill="#889FC9"/>
<circle cx="4.19446" cy="4.19446" r="4.19446" transform="matrix(0.866025 0.5 -0.866025 0.5 442.949 570.394)" fill="#889FC9"/>
<circle cx="4.19446" cy="4.19446" r="4.19446" transform="matrix(0.866025 0.5 -0.866025 0.5 377.564 532.643)" fill="#889FC9"/>
<circle cx="4.19446" cy="4.19446" r="4.19446" transform="matrix(0.866025 0.5 -0.866025 0.5 508.335 608.144)" fill="#889FC9"/>
<circle cx="4.19446" cy="4.19446" r="4.19446" transform="matrix(0.866025 0.5 -0.866025 0.5 333.974 507.477)" fill="#889FC9"/>
<circle cx="4.19446" cy="4.19446" r="4.19446" transform="matrix(0.866025 0.5 -0.866025 0.5 464.744 582.977)" fill="#889FC9"/>
<circle cx="4.19446" cy="4.19446" r="4.19446" transform="matrix(0.866025 0.5 -0.866025 0.5 399.359 545.227)" fill="#889FC9"/>
<circle cx="4.19446" cy="4.19446" r="4.19446" transform="matrix(0.866025 0.5 -0.866025 0.5 530.129 620.727)" fill="#889FC9"/>
<circle cx="4.19446" cy="4.19446" r="4.19446" transform="matrix(0.866025 0.5 -0.866025 0.5 355.77 520.06)" fill="#889FC9"/>
<circle cx="4.19446" cy="4.19446" r="4.19446" transform="matrix(0.866025 0.5 -0.866025 0.5 486.54 595.56)" fill="#889FC9"/>
<circle cx="4.19446" cy="4.19446" r="4.19446" transform="matrix(0.866025 0.5 -0.866025 0.5 421.154 557.81)" fill="#889FC9"/>
<circle cx="4.19446" cy="4.19446" r="4.19446" transform="matrix(0.866025 0.5 -0.866025 0.5 551.925 633.31)" fill="#889FC9"/>
<circle cx="4.19446" cy="4.19446" r="4.19446" transform="matrix(0.866025 0.5 -0.866025 0.5 355.771 469.727)" fill="#889FC9"/>
<circle cx="4.19446" cy="4.19446" r="4.19446" transform="matrix(0.866025 0.5 -0.866025 0.5 486.541 545.227)" fill="#889FC9"/>
<circle cx="4.19446" cy="4.19446" r="4.19446" transform="matrix(0.866025 0.5 -0.866025 0.5 421.155 507.477)" fill="#889FC9"/>
<circle cx="4.19446" cy="4.19446" r="4.19446" transform="matrix(0.866025 0.5 -0.866025 0.5 551.926 582.977)" fill="#889FC9"/>
<circle cx="4.19446" cy="4.19446" r="4.19446" transform="matrix(0.866025 0.5 -0.866025 0.5 377.564 482.31)" fill="#889FC9"/>
<circle cx="4.19446" cy="4.19446" r="4.19446" transform="matrix(0.866025 0.5 -0.866025 0.5 508.336 557.81)" fill="#889FC9"/>
<circle cx="4.19446" cy="4.19446" r="4.19446" transform="matrix(0.866025 0.5 -0.866025 0.5 442.951 520.06)" fill="#889FC9"/>
<circle cx="4.19446" cy="4.19446" r="4.19446" transform="matrix(0.866025 0.5 -0.866025 0.5 573.721 595.561)" fill="#889FC9"/>
<circle cx="4.19446" cy="4.19446" r="4.19446" transform="matrix(0.866025 0.5 -0.866025 0.5 399.36 494.894)" fill="#889FC9"/>
<circle cx="4.19446" cy="4.19446" r="4.19446" transform="matrix(0.866025 0.5 -0.866025 0.5 530.131 570.394)" fill="#889FC9"/>
<circle cx="4.19446" cy="4.19446" r="4.19446" transform="matrix(0.866025 0.5 -0.866025 0.5 464.746 532.644)" fill="#889FC9"/>
<circle cx="4.19446" cy="4.19446" r="4.19446" transform="matrix(0.866025 0.5 -0.866025 0.5 595.517 608.144)" fill="#889FC9"/>
<circle cx="4.19446" cy="4.19446" r="4.19446" transform="matrix(0.866025 0.5 -0.866025 0.5 268.59 520.06)" fill="#889FC9"/>
<circle cx="4.19446" cy="4.19446" r="4.19446" transform="matrix(0.866025 0.5 -0.866025 0.5 399.36 595.56)" fill="#889FC9"/>
<circle cx="4.19446" cy="4.19446" r="4.19446" transform="matrix(0.866025 0.5 -0.866025 0.5 333.975 557.81)" fill="#889FC9"/>
<circle cx="4.19446" cy="4.19446" r="4.19446" transform="matrix(0.866025 0.5 -0.866025 0.5 464.745 633.31)" fill="#889FC9"/>
<circle cx="4.19446" cy="4.19446" r="4.19446" transform="matrix(0.866025 0.5 -0.866025 0.5 290.384 532.643)" fill="#889FC9"/>
<circle cx="4.19446" cy="4.19446" r="4.19446" transform="matrix(0.866025 0.5 -0.866025 0.5 421.155 608.144)" fill="#889FC9"/>
<circle cx="4.19446" cy="4.19446" r="4.19446" transform="matrix(0.866025 0.5 -0.866025 0.5 355.771 570.394)" fill="#889FC9"/>
<circle cx="4.19446" cy="4.19446" r="4.19446" transform="matrix(0.866025 0.5 -0.866025 0.5 486.54 645.894)" fill="#889FC9"/>
<circle cx="4.19446" cy="4.19446" r="4.19446" transform="matrix(0.866025 0.5 -0.866025 0.5 312.18 545.227)" fill="#889FC9"/>
<circle cx="4.19446" cy="4.19446" r="4.19446" transform="matrix(0.866025 0.5 -0.866025 0.5 442.95 620.727)" fill="#889FC9"/>
<circle cx="4.19446" cy="4.19446" r="4.19446" transform="matrix(0.866025 0.5 -0.866025 0.5 377.564 582.977)" fill="#889FC9"/>
<circle cx="4.19446" cy="4.19446" r="4.19446" transform="matrix(0.866025 0.5 -0.866025 0.5 508.335 658.477)" fill="#889FC9"/>
<circle cx="4.19446" cy="4.19446" r="4.19446" transform="matrix(0.866025 0.5 -0.866025 0.5 225 545.227)" fill="#889FC9"/>
<circle cx="4.19446" cy="4.19446" r="4.19446" transform="matrix(0.866025 0.5 -0.866025 0.5 355.771 620.727)" fill="#889FC9"/>
<circle cx="4.19446" cy="4.19446" r="4.19446" transform="matrix(0.866025 0.5 -0.866025 0.5 290.384 582.977)" fill="#889FC9"/>
<circle cx="4.19446" cy="4.19446" r="4.19446" transform="matrix(0.866025 0.5 -0.866025 0.5 421.155 658.477)" fill="#889FC9"/>
<circle cx="4.19446" cy="4.19446" r="4.19446" transform="matrix(0.866025 0.5 -0.866025 0.5 246.795 557.81)" fill="#889FC9"/>
<circle cx="4.19446" cy="4.19446" r="4.19446" transform="matrix(0.866025 0.5 -0.866025 0.5 377.564 633.31)" fill="#889FC9"/>
<circle cx="4.19446" cy="4.19446" r="4.19446" transform="matrix(0.866025 0.5 -0.866025 0.5 312.18 595.561)" fill="#889FC9"/>
<circle cx="4.19446" cy="4.19446" r="4.19446" transform="matrix(0.866025 0.5 -0.866025 0.5 442.95 671.061)" fill="#889FC9"/>
<circle cx="4.19446" cy="4.19446" r="4.19446" transform="matrix(0.866025 0.5 -0.866025 0.5 268.589 570.394)" fill="#889FC9"/>
<circle cx="4.19446" cy="4.19446" r="4.19446" transform="matrix(0.866025 0.5 -0.866025 0.5 399.36 645.894)" fill="#889FC9"/>
<circle cx="4.19446" cy="4.19446" r="4.19446" transform="matrix(0.866025 0.5 -0.866025 0.5 333.974 608.144)" fill="#889FC9"/>
<circle cx="4.19446" cy="4.19446" r="4.19446" transform="matrix(0.866025 0.5 -0.866025 0.5 464.745 683.644)" fill="#889FC9"/>
<circle cx="4.19446" cy="4.19446" r="4.19446" transform="matrix(0.866025 0.5 -0.866025 0.5 181.409 570.393)" fill="#889FC9"/>
<circle cx="4.19446" cy="4.19446" r="4.19446" transform="matrix(0.866025 0.5 -0.866025 0.5 312.18 645.894)" fill="#889FC9"/>
<circle cx="4.19446" cy="4.19446" r="4.19446" transform="matrix(0.866025 0.5 -0.866025 0.5 246.793 608.144)" fill="#889FC9"/>
<circle cx="4.19446" cy="4.19446" r="4.19446" transform="matrix(0.866025 0.5 -0.866025 0.5 377.564 683.644)" fill="#889FC9"/>
<circle cx="4.19446" cy="4.19446" r="4.19446" transform="matrix(0.866025 0.5 -0.866025 0.5 203.204 582.977)" fill="#889FC9"/>
<circle cx="4.19446" cy="4.19446" r="4.19446" transform="matrix(0.866025 0.5 -0.866025 0.5 333.975 658.477)" fill="#889FC9"/>
<circle cx="4.19446" cy="4.19446" r="4.19446" transform="matrix(0.866025 0.5 -0.866025 0.5 268.589 620.727)" fill="#889FC9"/>
<circle cx="4.19446" cy="4.19446" r="4.19446" transform="matrix(0.866025 0.5 -0.866025 0.5 399.359 696.227)" fill="#889FC9"/>
<circle cx="4.19446" cy="4.19446" r="4.19446" transform="matrix(0.866025 0.5 -0.866025 0.5 224.998 595.56)" fill="#889FC9"/>
<circle cx="4.19446" cy="4.19446" r="4.19446" transform="matrix(0.866025 0.5 -0.866025 0.5 355.77 671.061)" fill="#889FC9"/>
<circle cx="4.19446" cy="4.19446" r="4.19446" transform="matrix(0.866025 0.5 -0.866025 0.5 290.384 633.31)" fill="#889FC9"/>
<circle cx="4.19446" cy="4.19446" r="4.19446" transform="matrix(0.866025 0.5 -0.866025 0.5 421.154 708.811)" fill="#889FC9"/>
<circle cx="4.19446" cy="4.19446" r="4.19446" transform="matrix(0.866025 0.5 -0.866025 0.5 377.566 457.143)" fill="#889FC9"/>
<circle cx="4.19446" cy="4.19446" r="4.19446" transform="matrix(0.866025 0.5 -0.866025 0.5 508.337 532.644)" fill="#889FC9"/>
<circle cx="4.19446" cy="4.19446" r="4.19446" transform="matrix(0.866025 0.5 -0.866025 0.5 442.951 494.894)" fill="#889FC9"/>
<circle cx="4.19446" cy="4.19446" r="4.19446" transform="matrix(0.866025 0.5 -0.866025 0.5 573.722 570.394)" fill="#889FC9"/>
<circle cx="4.19446" cy="4.19446" r="4.19446" transform="matrix(0.866025 0.5 -0.866025 0.5 399.36 469.727)" fill="#889FC9"/>
<circle cx="4.19446" cy="4.19446" r="4.19446" transform="matrix(0.866025 0.5 -0.866025 0.5 530.132 545.227)" fill="#889FC9"/>
<circle cx="4.19446" cy="4.19446" r="4.19446" transform="matrix(0.866025 0.5 -0.866025 0.5 464.747 507.477)" fill="#889FC9"/>
<circle cx="4.19446" cy="4.19446" r="4.19446" transform="matrix(0.866025 0.5 -0.866025 0.5 595.517 582.977)" fill="#889FC9"/>
<circle cx="4.19446" cy="4.19446" r="4.19446" transform="matrix(0.866025 0.5 -0.866025 0.5 421.156 482.31)" fill="#889FC9"/>
<circle cx="4.19446" cy="4.19446" r="4.19446" transform="matrix(0.866025 0.5 -0.866025 0.5 551.927 557.811)" fill="#889FC9"/>
<circle cx="4.19446" cy="4.19446" r="4.19446" transform="matrix(0.866025 0.5 -0.866025 0.5 486.542 520.06)" fill="#889FC9"/>
<circle cx="4.19446" cy="4.19446" r="4.19446" transform="matrix(0.866025 0.5 -0.866025 0.5 617.312 595.56)" fill="#889FC9"/>
<circle cx="4.19446" cy="4.19446" r="4.19446" transform="matrix(0.866025 0.5 -0.866025 0.5 290.385 507.477)" fill="#889FC9"/>
<circle cx="4.19446" cy="4.19446" r="4.19446" transform="matrix(0.866025 0.5 -0.866025 0.5 421.155 582.977)" fill="#889FC9"/>
<circle cx="4.19446" cy="4.19446" r="4.19446" transform="matrix(0.866025 0.5 -0.866025 0.5 355.77 545.227)" fill="#889FC9"/>
<circle cx="4.19446" cy="4.19446" r="4.19446" transform="matrix(0.866025 0.5 -0.866025 0.5 486.54 620.727)" fill="#889FC9"/>
<circle cx="4.19446" cy="4.19446" r="4.19446" transform="matrix(0.866025 0.5 -0.866025 0.5 312.179 520.06)" fill="#889FC9"/>
<circle cx="4.19446" cy="4.19446" r="4.19446" transform="matrix(0.866025 0.5 -0.866025 0.5 442.95 595.56)" fill="#889FC9"/>
<circle cx="4.19446" cy="4.19446" r="4.19446" transform="matrix(0.866025 0.5 -0.866025 0.5 377.564 557.81)" fill="#889FC9"/>
<circle cx="4.19446" cy="4.19446" r="4.19446" transform="matrix(0.866025 0.5 -0.866025 0.5 508.335 633.31)" fill="#889FC9"/>
<circle cx="4.19446" cy="4.19446" r="4.19446" transform="matrix(0.866025 0.5 -0.866025 0.5 333.975 532.643)" fill="#889FC9"/>
<circle cx="4.19446" cy="4.19446" r="4.19446" transform="matrix(0.866025 0.5 -0.866025 0.5 464.745 608.144)" fill="#889FC9"/>
<circle cx="4.19446" cy="4.19446" r="4.19446" transform="matrix(0.866025 0.5 -0.866025 0.5 399.359 570.394)" fill="#889FC9"/>
<circle cx="4.19446" cy="4.19446" r="4.19446" transform="matrix(0.866025 0.5 -0.866025 0.5 530.13 645.894)" fill="#889FC9"/>
<circle cx="4.19446" cy="4.19446" r="4.19446" transform="matrix(0.866025 0.5 -0.866025 0.5 333.976 482.31)" fill="#889FC9"/>
<circle cx="4.19446" cy="4.19446" r="4.19446" transform="matrix(0.866025 0.5 -0.866025 0.5 464.746 557.81)" fill="#889FC9"/>
<circle cx="4.19446" cy="4.19446" r="4.19446" transform="matrix(0.866025 0.5 -0.866025 0.5 399.36 520.06)" fill="#889FC9"/>
<circle cx="4.19446" cy="4.19446" r="4.19446" transform="matrix(0.866025 0.5 -0.866025 0.5 530.131 595.56)" fill="#889FC9"/>
<circle cx="4.19446" cy="4.19446" r="4.19446" transform="matrix(0.866025 0.5 -0.866025 0.5 355.77 494.893)" fill="#889FC9"/>
<circle cx="4.19446" cy="4.19446" r="4.19446" transform="matrix(0.866025 0.5 -0.866025 0.5 486.54 570.394)" fill="#889FC9"/>
<circle cx="4.19446" cy="4.19446" r="4.19446" transform="matrix(0.866025 0.5 -0.866025 0.5 421.155 532.643)" fill="#889FC9"/>
<circle cx="4.19446" cy="4.19446" r="4.19446" transform="matrix(0.866025 0.5 -0.866025 0.5 551.925 608.144)" fill="#889FC9"/>
<circle cx="4.19446" cy="4.19446" r="4.19446" transform="matrix(0.866025 0.5 -0.866025 0.5 377.565 507.477)" fill="#889FC9"/>
<circle cx="4.19446" cy="4.19446" r="4.19446" transform="matrix(0.866025 0.5 -0.866025 0.5 508.336 582.977)" fill="#889FC9"/>
<circle cx="4.19446" cy="4.19446" r="4.19446" transform="matrix(0.866025 0.5 -0.866025 0.5 442.95 545.227)" fill="#889FC9"/>
<circle cx="4.19446" cy="4.19446" r="4.19446" transform="matrix(0.866025 0.5 -0.866025 0.5 573.722 620.727)" fill="#889FC9"/>
<circle cx="4.19446" cy="4.19446" r="4.19446" transform="matrix(0.866025 0.5 -0.866025 0.5 246.796 532.644)" fill="#889FC9"/>
<circle cx="4.19446" cy="4.19446" r="4.19446" transform="matrix(0.866025 0.5 -0.866025 0.5 377.566 608.144)" fill="#889FC9"/>
<circle cx="4.19446" cy="4.19446" r="4.19446" transform="matrix(0.866025 0.5 -0.866025 0.5 312.181 570.394)" fill="#889FC9"/>
<circle cx="4.19446" cy="4.19446" r="4.19446" transform="matrix(0.866025 0.5 -0.866025 0.5 442.951 645.894)" fill="#889FC9"/>
<circle cx="4.19446" cy="4.19446" r="4.19446" transform="matrix(0.866025 0.5 -0.866025 0.5 268.59 545.227)" fill="#889FC9"/>
<circle cx="4.19446" cy="4.19446" r="4.19446" transform="matrix(0.866025 0.5 -0.866025 0.5 399.36 620.727)" fill="#889FC9"/>
<circle cx="4.19446" cy="4.19446" r="4.19446" transform="matrix(0.866025 0.5 -0.866025 0.5 333.976 582.977)" fill="#889FC9"/>
<circle cx="4.19446" cy="4.19446" r="4.19446" transform="matrix(0.866025 0.5 -0.866025 0.5 464.746 658.478)" fill="#889FC9"/>
<circle cx="4.19446" cy="4.19446" r="4.19446" transform="matrix(0.866025 0.5 -0.866025 0.5 290.386 557.811)" fill="#889FC9"/>
<circle cx="4.19446" cy="4.19446" r="4.19446" transform="matrix(0.866025 0.5 -0.866025 0.5 421.156 633.311)" fill="#889FC9"/>
<circle cx="4.19446" cy="4.19446" r="4.19446" transform="matrix(0.866025 0.5 -0.866025 0.5 355.771 595.561)" fill="#889FC9"/>
<circle cx="4.19446" cy="4.19446" r="4.19446" transform="matrix(0.866025 0.5 -0.866025 0.5 486.541 671.061)" fill="#889FC9"/>
<circle cx="4.19446" cy="4.19446" r="4.19446" transform="matrix(0.866025 0.5 -0.866025 0.5 203.205 557.81)" fill="#889FC9"/>
<circle cx="4.19446" cy="4.19446" r="4.19446" transform="matrix(0.866025 0.5 -0.866025 0.5 333.976 633.311)" fill="#889FC9"/>
<circle cx="4.19446" cy="4.19446" r="4.19446" transform="matrix(0.866025 0.5 -0.866025 0.5 268.589 595.561)" fill="#889FC9"/>
<circle cx="4.19446" cy="4.19446" r="4.19446" transform="matrix(0.866025 0.5 -0.866025 0.5 399.36 671.061)" fill="#889FC9"/>
<circle cx="4.19446" cy="4.19446" r="4.19446" transform="matrix(0.866025 0.5 -0.866025 0.5 225 570.394)" fill="#889FC9"/>
<circle cx="4.19446" cy="4.19446" r="4.19446" transform="matrix(0.866025 0.5 -0.866025 0.5 355.77 645.894)" fill="#889FC9"/>
<circle cx="4.19446" cy="4.19446" r="4.19446" transform="matrix(0.866025 0.5 -0.866025 0.5 290.385 608.144)" fill="#889FC9"/>
<circle cx="4.19446" cy="4.19446" r="4.19446" transform="matrix(0.866025 0.5 -0.866025 0.5 421.155 683.644)" fill="#889FC9"/>
<circle cx="4.19446" cy="4.19446" r="4.19446" transform="matrix(0.866025 0.5 -0.866025 0.5 246.794 582.977)" fill="#889FC9"/>
<circle cx="4.19446" cy="4.19446" r="4.19446" transform="matrix(0.866025 0.5 -0.866025 0.5 377.565 658.478)" fill="#889FC9"/>
<circle cx="4.19446" cy="4.19446" r="4.19446" transform="matrix(0.866025 0.5 -0.866025 0.5 312.18 620.727)" fill="#889FC9"/>
<circle cx="4.19446" cy="4.19446" r="4.19446" transform="matrix(0.866025 0.5 -0.866025 0.5 442.95 696.228)" fill="#889FC9"/>
<circle cx="4.19446" cy="4.19446" r="4.19446" transform="matrix(0.866025 0.5 -0.866025 0.5 159.616 582.977)" fill="#889FC9"/>
<circle cx="4.19446" cy="4.19446" r="4.19446" transform="matrix(0.866025 0.5 -0.866025 0.5 290.387 658.477)" fill="#889FC9"/>
<circle cx="4.19446" cy="4.19446" r="4.19446" transform="matrix(0.866025 0.5 -0.866025 0.5 225 620.727)" fill="#889FC9"/>
<circle cx="4.19446" cy="4.19446" r="4.19446" transform="matrix(0.866025 0.5 -0.866025 0.5 355.771 696.227)" fill="#889FC9"/>
<circle cx="4.19446" cy="4.19446" r="4.19446" transform="matrix(0.866025 0.5 -0.866025 0.5 181.411 595.56)" fill="#889FC9"/>
<circle cx="4.19446" cy="4.19446" r="4.19446" transform="matrix(0.866025 0.5 -0.866025 0.5 312.181 671.061)" fill="#889FC9"/>
<circle cx="4.19446" cy="4.19446" r="4.19446" transform="matrix(0.866025 0.5 -0.866025 0.5 246.797 633.31)" fill="#889FC9"/>
<circle cx="4.19446" cy="4.19446" r="4.19446" transform="matrix(0.866025 0.5 -0.866025 0.5 377.566 708.811)" fill="#889FC9"/>
<circle cx="4.19446" cy="4.19446" r="4.19446" transform="matrix(0.866025 0.5 -0.866025 0.5 203.206 608.144)" fill="#889FC9"/>
<circle cx="4.19446" cy="4.19446" r="4.19446" transform="matrix(0.866025 0.5 -0.866025 0.5 333.977 683.644)" fill="#889FC9"/>
<circle cx="4.19446" cy="4.19446" r="4.19446" transform="matrix(0.866025 0.5 -0.866025 0.5 268.591 645.894)" fill="#889FC9"/>
<circle cx="4.19446" cy="4.19446" r="4.19446" transform="matrix(0.866025 0.5 -0.866025 0.5 399.361 721.394)" fill="#889FC9"/>
</g>
<rect x="0.938308" y="1.65751" width="524.175" height="454.853" rx="10.9434" transform="matrix(0.857418 0.51462 -2.11919e-08 1 221.214 6.15531)" fill="#FF8375" fill-opacity="0.1" stroke="#FF8375" stroke-width="2.18868" stroke-dasharray="2.19 2.19"/>
<rect x="0.938308" y="1.65751" width="245.247" height="405.99" rx="10.9434" transform="matrix(0.857418 0.51462 -2.11919e-08 1 437.228 160.742)" fill="#FF8375" stroke="#FF8375" stroke-width="2.18868"/>
<path d="M718.683 433.924L718.683 554.6C718.683 561.248 714.062 563.864 708.361 560.443L506.526 439.302" stroke="#FF8375" stroke-width="2.18868"/>
<path d="M95.7146 60.0205L95.7146 180.697C95.7146 187.345 100.336 195.508 106.036 198.929L506.526 439.302" stroke="#FF8375" stroke-width="2.18868"/>
<path fill-rule="evenodd" clip-rule="evenodd" d="M179.725 37.7226C181.28 36.7895 183.801 36.7895 185.355 37.7226L202.757 48.1671L202.74 48.1773L610.831 293.112C613.94 294.978 616.461 299.431 616.461 303.057L616.461 735.176C616.461 736.77 615.974 737.939 615.164 738.59L615.499 738.791L602.359 746.677L582.711 734.885L593.873 728.185L187.17 484.084C184.061 482.217 181.541 477.765 181.541 474.138L181.541 51.6808L169.005 44.157L179.725 37.7226Z" fill="#E7ECF4"/>
<rect width="510.929" height="444.671" rx="6.56604" transform="matrix(0.857418 0.51462 -2.11919e-08 1 167.077 42.6353)" fill="white"/>
<rect x="-0.469154" y="0.265586" width="134.996" height="296.564" rx="8.20755" transform="matrix(-0.857418 -0.51462 -2.11919e-08 1 303.142 246.055)" stroke="#E7ECF4" stroke-width="1.09434"/>
<rect width="43.8637" height="47.4013" rx="8.75473" transform="matrix(0.857418 0.51462 -2.11919e-08 1 315.585 248.149)" fill="#F4F5FB"/>
<rect width="73.1061" height="25.9123" rx="8.75473" transform="matrix(0.857418 0.51462 -2.11919e-08 1 507.492 375.468)" fill="#889FC9"/>
<rect width="53.9861" height="8.42743" rx="4.21371" transform="matrix(0.857418 0.51462 -2.11919e-08 1 515.205 389.503)" fill="white" fill-opacity="0.2"/>
<rect width="309.295" height="84.7627" rx="8.75473" transform="matrix(0.857418 0.51462 -2.11919e-08 1 315.585 463.688)" fill="#F4F5FB"/>
<rect width="459.213" height="50.2112" rx="8.75473" transform="matrix(0.857418 0.51462 2.11919e-08 -1 187.329 158.01)" fill="#F4F5FB"/>
<rect width="23.3766" height="24.0602" rx="8.75473" transform="matrix(0.857418 0.51462 2.11919e-08 -1 196.971 150.906)" fill="#889FC9"/>
<rect width="129.342" height="12.563" rx="6.28148" transform="matrix(0.857418 0.51462 2.11919e-08 -1 223.973 161.464)" fill="#CFD9E9"/>
<ellipse cx="4.49884" cy="4.63038" rx="4.49884" ry="4.63038" transform="matrix(0.857418 0.51462 -2.11919e-08 1 191.185 82.7355)" fill="#FC534D"/>
<ellipse cx="4.49884" cy="4.63038" rx="4.49884" ry="4.63038" transform="matrix(0.857418 0.51462 -2.11919e-08 1 203.721 89.7531)" fill="#FDB634"/>
<ellipse cx="4.49884" cy="4.63038" rx="4.49884" ry="4.63038" transform="matrix(0.857418 0.51462 -2.11919e-08 1 217.222 96.7706)" fill="#2CC443"/>
<line x1="494.406" y1="218.368" x2="494.406" y2="47.9414" stroke="#FF8375" stroke-width="1.09434"/>
<rect width="17.5325" height="18.0451" rx="6.56604" transform="matrix(0.857418 0.51462 -2.11919e-08 1 487.24 36.9139)" fill="#FF8375"/>
<rect width="17.5325" height="18.0451" rx="6.56604" transform="matrix(0.857418 0.51462 -2.11919e-08 1 710.967 414.859)" fill="#FF8375"/>
<rect width="17.5325" height="18.0451" rx="6.56604" transform="matrix(0.857418 0.51462 -2.11919e-08 1 88 49.9465)" fill="#FF8375"/>
<path d="M336.734 278.65C336.595 279.571 334.351 278.894 333.247 278.441C331.969 278.17 330.109 278.047 332.898 279.721C336.385 281.814 336.734 279.721 336.56 281.081C336.42 282.17 336.618 289.697 336.734 293.325C336.85 293.743 337.222 294.664 337.78 294.999C338.478 295.418 338.478 294.999 338.478 294.79C338.199 293.618 338.361 285.79 338.478 282.023C339.454 283.446 340.279 284.43 340.57 284.744L340.744 283.15C340.221 282.627 338.947 280.849 338.826 279.906C338.652 278.545 339.117 274.569 339.698 272.894C339.756 272.79 339.733 272.413 339.175 271.743C338.617 271.074 338.245 271.046 338.129 271.116C337.432 271.534 336.909 277.499 336.734 278.65Z" fill="white" stroke="#889FC9" stroke-width="0.871714"/>
<path d="M335.166 280.454C335.027 281.04 333.597 281.326 332.899 281.396L333.248 282.861C333.946 282.777 334.934 282.686 335.34 282.652L335.166 292.384C335.224 292.628 335.48 293.2 336.038 293.535C336.596 293.87 336.735 293.674 336.735 293.535C336.875 292.949 337.026 286.454 337.084 283.279C338.618 285.54 340.048 286.872 340.571 287.256C340.85 287.256 340.687 286.419 340.571 286C338.758 284.577 337.491 282.059 337.084 280.977C337.084 279.135 336.386 272.954 336.038 270.094C335.98 269.92 335.724 269.487 335.166 269.152C334.608 268.817 334.12 268.734 334.12 269.152C334.12 269.814 335.34 279.722 335.166 280.454Z" fill="white" stroke="#889FC9" stroke-width="0.871714"/>
<path d="M333.769 293.01C334.117 286.103 333.071 283.801 332.897 283.487C332.49 283.173 331.955 282.587 333.071 282.755C333.769 282.859 334.64 286.208 334.64 287.464L334.64 293.533C334.64 293.533 334.64 294.161 334.117 293.847C333.594 293.533 333.769 293.01 333.769 293.01Z" fill="white" stroke="#889FC9" stroke-width="0.871714"/>
<path d="M340.046 296.778C339.697 289.452 340.743 288.406 340.918 288.301C341.325 288.476 341.859 288.531 340.743 287.359C340.046 286.627 339.174 288.929 339.174 290.185L339.174 296.254C339.174 296.254 339.174 296.882 339.697 297.196C340.22 297.51 340.046 296.778 340.046 296.778Z" fill="white" stroke="#889FC9" stroke-width="0.871714"/>
<mask id="path-171-inside-1_2541_8610" fill="white">
<ellipse cx="1.01673" cy="0.418584" rx="1.01673" ry="0.418584" transform="matrix(0.857418 0.51462 -2.11919e-08 1 334.22 268.667)"/>
</mask>
<ellipse cx="1.01673" cy="0.418584" rx="1.01673" ry="0.418584" transform="matrix(0.857418 0.51462 -2.11919e-08 1 334.22 268.667)" fill="white"/>
<path d="M335.216 269.684C335.216 269.434 335.324 269.343 335.373 269.316C335.42 269.291 335.449 269.301 335.423 269.298C335.376 269.292 335.259 269.256 335.091 269.156L335.091 270.899C335.405 271.088 335.724 271.22 335.992 271.252C336.125 271.268 336.281 271.264 336.416 271.192C336.553 271.118 336.711 270.946 336.711 270.581L335.216 269.684ZM335.091 269.156C334.924 269.055 334.807 268.951 334.76 268.9C334.734 268.872 334.763 268.897 334.81 268.978C334.859 269.063 334.967 269.285 334.967 269.534L333.472 268.637C333.472 269.002 333.63 269.363 333.767 269.602C333.902 269.836 334.058 270.027 334.191 270.17C334.459 270.46 334.778 270.711 335.091 270.899L335.091 269.156ZM334.967 269.534C334.967 269.784 334.859 269.875 334.81 269.901C334.763 269.926 334.734 269.917 334.76 269.92C334.807 269.925 334.924 269.961 335.091 270.062L335.091 268.319C334.778 268.13 334.459 267.998 334.191 267.966C334.058 267.95 333.902 267.954 333.767 268.026C333.63 268.1 333.472 268.272 333.472 268.637L334.967 269.534ZM335.091 270.062C335.259 270.163 335.376 270.267 335.423 270.318C335.449 270.346 335.42 270.321 335.373 270.24C335.324 270.155 335.216 269.933 335.216 269.684L336.711 270.581C336.711 270.215 336.553 269.855 336.416 269.616C336.281 269.382 336.125 269.191 335.992 269.048C335.724 268.758 335.405 268.507 335.091 268.319L335.091 270.062Z" fill="#889FC9" mask="url(#path-171-inside-1_2541_8610)"/>
<mask id="path-173-inside-2_2541_8610" fill="white">
<ellipse cx="0.822749" cy="0.415643" rx="0.822749" ry="0.415643" transform="matrix(0.737099 0.95325 -0.419477 0.620384 338.481 271.141)"/>
</mask>
<ellipse cx="0.822749" cy="0.415643" rx="0.822749" ry="0.415643" transform="matrix(0.737099 0.95325 -0.419477 0.620384 338.481 271.141)" fill="white"/>
<path d="M338.877 272.137C338.957 272.019 339.073 272.01 339.147 272.022C339.182 272.028 339.21 272.04 339.227 272.047C339.244 272.055 339.254 272.062 339.256 272.063C339.258 272.065 339.243 272.055 339.212 272.024C339.182 271.994 339.145 271.953 339.105 271.901L338.374 272.982C338.62 273.301 338.903 273.59 339.182 273.778C339.415 273.935 339.903 274.182 340.163 273.799L338.877 272.137ZM339.105 271.901C339.064 271.848 339.032 271.8 339.009 271.761C338.984 271.72 338.976 271.7 338.978 271.703C338.979 271.706 338.984 271.719 338.991 271.742C338.998 271.764 339.007 271.803 339.014 271.851C339.028 271.952 339.029 272.112 338.95 272.23L337.665 270.568C337.405 270.952 337.617 271.609 337.745 271.919C337.9 272.292 338.127 272.663 338.374 272.982L339.105 271.901ZM338.95 272.23C338.87 272.348 338.754 272.358 338.681 272.345C338.645 272.339 338.617 272.328 338.6 272.32C338.583 272.312 338.573 272.305 338.571 272.304C338.569 272.302 338.584 272.313 338.615 272.343C338.645 272.373 338.682 272.414 338.722 272.467L339.454 271.385C339.207 271.066 338.924 270.778 338.645 270.589C338.412 270.433 337.924 270.185 337.665 270.568L338.95 272.23ZM338.722 272.467C338.763 272.519 338.795 272.567 338.818 272.607C338.843 272.647 338.851 272.667 338.85 272.664C338.849 272.661 338.843 272.648 338.836 272.625C338.83 272.603 338.82 272.565 338.813 272.516C338.799 272.415 338.798 272.255 338.877 272.137L340.163 273.799C340.422 273.415 340.21 272.758 340.082 272.448C339.927 272.075 339.7 271.704 339.454 271.385L338.722 272.467Z" fill="#889FC9" mask="url(#path-173-inside-2_2541_8610)"/>
<path d="M332.939 281.419C332.66 282.424 333.055 283.512 333.287 283.931C333.985 285.396 333.81 285.71 333.636 287.279C333.549 288.058 331.021 290.942 328.231 286.337C324.5 280.181 325.092 274.198 325.615 272.419C326.138 270.64 327.011 267.187 331.369 270.85C334.857 273.78 333.868 277.303 332.939 278.698C333.055 279.187 333.218 280.414 332.939 281.419Z" fill="white" stroke="#889FC9" stroke-width="0.871714"/>
<path d="M340.618 285.991C340.897 287.331 340.502 287.945 340.269 288.084C339.572 288.712 339.746 289.235 339.921 291.014C340.007 291.897 342.536 297.816 345.326 296.561C349.056 294.882 348.464 288.189 347.941 285.782C347.418 283.375 346.546 278.875 342.187 277.306C338.7 276.05 339.688 280.759 340.618 283.27C340.502 283.619 340.339 284.652 340.618 285.991Z" fill="white" stroke="#889FC9" stroke-width="0.871714"/>
<rect width="43.8637" height="47.4013" rx="8.75473" transform="matrix(0.857418 0.51462 -2.11919e-08 1 362.838 275.217)" fill="#F4F5FB"/>
<path d="M376.325 298.126C376.494 299.163 376.358 301.44 376.325 301.541L378.391 301.074L379.475 298.228C379.362 297.902 379.088 297.223 378.899 297.109C378.662 296.967 377.883 297.719 377.781 297.699C377.679 297.679 377.544 296.093 377.375 295.788C377.205 295.483 375.749 295.219 375.952 295.707C376.155 296.195 376.155 297.089 376.325 298.126Z" fill="white" stroke="#889FC9" stroke-width="0.999563"/>
<path d="M374.6 303.474C373.99 305.507 375.04 306.991 375.074 307.174L381.069 311.544L386.116 314.37C386.06 313.997 385.974 313.187 386.082 312.927C386.191 312.666 386.263 312.086 386.285 311.829L386.997 312.174C387.042 312.174 387.132 312.118 387.132 311.89C387.132 311.662 387.042 311.551 386.997 311.524L386.252 311.117L386.048 310.589L387.065 310.67C387.092 310.459 386.985 310.257 386.929 310.182C386.821 310.085 386.071 310.006 385.71 309.979C385.059 309.231 385.123 308.393 385.235 308.068C384.468 307.621 382.912 306.706 382.831 306.625C382.749 306.543 380.2 302.837 378.936 300.993L377.005 301.054C376.407 301.183 375.088 301.847 374.6 303.474Z" fill="white" stroke="#889FC9" stroke-width="0.999563"/>
<path d="M378.944 303.28C379.458 304.077 380.152 304.073 380.434 303.971C380.953 303.199 382.019 301.589 382.127 301.328C382.263 301.003 382.229 300.454 382.127 300.068C382.046 299.759 381.8 299.329 381.687 299.153C381.811 298.794 382.073 298.051 382.127 297.954C382.195 297.832 381.992 297.588 381.789 297.385C381.626 297.222 381.54 297.263 381.518 297.303L381.179 298.645L381.077 298.584L381.179 296.49C381.156 296.436 381.064 296.291 380.874 296.144C380.684 295.998 380.524 296.029 380.468 296.063L380.468 298.299L380.264 298.177C380.197 297.635 380.101 296.538 380.061 296.429C380.021 296.318 379.848 296.198 379.682 296.156C379.445 296.095 379.378 296.258 379.384 296.307C379.452 296.917 379.648 298.046 379.655 298.137C379.316 298.096 378.74 298.686 378.402 299.336C378.131 299.857 378.108 300.773 378.131 301.166C378.187 301.538 378.429 302.483 378.944 303.28Z" fill="white" stroke="#889FC9" stroke-width="0.999563"/>
<mask id="path-181-inside-3_2541_8610" fill="white">
<ellipse cx="0.826933" cy="0.22585" rx="0.826933" ry="0.22585" transform="matrix(0.801494 0.125815 0.289524 1.11504 375.949 295.411)"/>
</mask>
<ellipse cx="0.826933" cy="0.22585" rx="0.826933" ry="0.22585" transform="matrix(0.801494 0.125815 0.289524 1.11504 375.949 295.411)" fill="white"/>
<path d="M376.539 295.745C376.468 295.471 376.489 295.271 376.525 295.151C376.559 295.039 376.61 294.981 376.636 294.956C376.685 294.909 376.722 294.905 376.702 294.91C376.672 294.918 376.586 294.925 376.453 294.904L377.032 297.134C377.265 297.17 377.496 297.173 377.683 297.127C377.77 297.105 377.891 297.063 377.991 296.966C378.065 296.895 378.303 296.621 378.141 295.997L376.539 295.745ZM376.453 294.904C376.321 294.884 376.224 294.848 376.187 294.83C376.162 294.818 376.204 294.833 376.284 294.901C376.325 294.936 376.411 295.015 376.509 295.148C376.613 295.29 376.744 295.514 376.816 295.789L375.213 295.537C375.376 296.162 375.783 296.536 375.901 296.637C376.063 296.776 376.216 296.861 376.323 296.914C376.55 297.025 376.799 297.097 377.032 297.134L376.453 294.904ZM376.816 295.789C376.887 296.064 376.866 296.263 376.83 296.383C376.795 296.495 376.744 296.553 376.719 296.578C376.67 296.625 376.633 296.629 376.653 296.624C376.683 296.616 376.769 296.609 376.901 296.63L376.323 294.401C376.089 294.364 375.858 294.361 375.672 294.407C375.584 294.429 375.464 294.471 375.364 294.569C375.29 294.64 375.051 294.913 375.213 295.537L376.816 295.789ZM376.901 296.63C377.034 296.651 377.131 296.687 377.168 296.705C377.193 296.717 377.15 296.701 377.071 296.633C377.03 296.598 376.944 296.519 376.846 296.386C376.741 296.244 376.61 296.02 376.539 295.745L378.141 295.997C377.979 295.373 377.572 294.998 377.454 294.897C377.292 294.758 377.139 294.673 377.032 294.621C376.805 294.51 376.556 294.437 376.323 294.401L376.901 296.63Z" fill="#889FC9" mask="url(#path-181-inside-3_2541_8610)"/>
<path d="M380.085 301.439C379.787 302.138 380.209 304.238 380.458 305.2L380.458 305.322L382.862 305.911C382.546 305.22 381.975 303.704 382.219 303.167C382.463 302.63 383.314 302.997 383.709 303.248C383.709 303.18 383.723 302.955 383.777 302.598C383.831 302.24 383.641 301.785 383.54 301.602C383.472 301.561 383.14 301.378 382.354 300.971C381.372 300.463 380.458 300.565 380.085 301.439Z" fill="white" stroke="#889FC9" stroke-width="0.999563"/>
<path d="M384.764 306.119C385.259 306.17 386.502 306.62 387.202 306.932C387.27 307.027 387.473 307.379 387.473 307.948C387.473 308.505 387.304 308.7 387.135 308.843C386.774 308.666 385.882 308.294 385.103 308.436C384.151 308.61 383.477 309.168 383.511 310.123C383.544 311.079 384.256 312.238 385.814 313.986C387.06 315.385 387.011 317.916 386.762 318.865C386.322 319.942 385.857 320.358 385.204 321.304C384.709 322.023 384.274 322.867 383.646 323.297C381.945 324.46 379.785 321.264 378.599 319.292C377.242 317.034 375.619 313.03 374.772 309.432C374.095 306.554 375.562 306.139 376.262 306.261C377.312 306.241 378.541 306.165 379.04 305.163C379.817 303.601 380.797 304.307 381.138 304.552L381.14 304.553C381.478 304.797 383.782 306.017 384.764 306.119Z" fill="white" stroke="#889FC9" stroke-width="0.999563"/>
<rect width="6.30709" height="6.4915" rx="3.15354" transform="matrix(0.857418 0.51462 2.11919e-08 -1 343.26 280.644)" fill="#FF4343"/>
<rect width="6.74826" height="6.94557" rx="3.37413" transform="matrix(0.857418 0.51462 2.11919e-08 -1 385.02 306.223)" fill="#FF4343"/>
<rect width="136.09" height="297.658" rx="8.75473" transform="matrix(-0.857418 -0.51462 -2.11919e-08 1 236.509 256.322)" fill="#F4F5FB"/>
<rect width="16.871" height="17.3643" rx="8.4355" transform="matrix(0.857418 0.51462 2.11919e-08 -1 130.431 233.94)" fill="#889FC9"/>
<rect width="16.871" height="17.3643" rx="8.4355" transform="matrix(0.857418 0.51462 2.11919e-08 -1 130.431 313.206)" fill="#889FC9"/>
<rect width="16.871" height="17.3643" rx="8.4355" transform="matrix(0.857418 0.51462 2.11919e-08 -1 130.431 338.201)" fill="#889FC9"/>
<rect width="16.871" height="17.3643" rx="8.4355" transform="matrix(0.857418 0.51462 2.11919e-08 -1 130.431 364.266)" fill="#889FC9"/>
<rect width="16.871" height="17.3643" rx="8.4355" transform="matrix(0.857418 0.51462 2.11919e-08 -1 130.431 391.333)" fill="#889FC9"/>
<rect width="51.7366" height="12.563" rx="6.28148" transform="matrix(0.857418 0.51462 2.11919e-08 -1 153.574 243.173)" fill="#CFD9E9"/>
<rect width="51.7366" height="12.563" rx="6.28148" transform="matrix(0.857418 0.51462 2.11919e-08 -1 153.574 322.371)" fill="#CFD9E9"/>
<rect width="51.7366" height="12.563" rx="6.28148" transform="matrix(0.857418 0.51462 2.11919e-08 -1 153.574 347.365)" fill="#CFD9E9"/>
<rect width="51.7366" height="12.563" rx="6.28148" transform="matrix(0.857418 0.51462 2.11919e-08 -1 153.574 373.431)" fill="#CFD9E9"/>
<rect width="51.7366" height="12.563" rx="6.28148" transform="matrix(0.857418 0.51462 2.11919e-08 -1 153.574 400.498)" fill="#CFD9E9"/>
<rect width="28.1177" height="12.563" rx="6.28148" transform="matrix(0.857418 0.51462 2.11919e-08 -1 130.431 269.239)" fill="#CFD9E9"/>
<rect width="28.1177" height="12.563" rx="6.28148" transform="matrix(0.857418 0.51462 2.11919e-08 -1 164.183 288.286)" fill="#CFD9E9"/>
<rect width="309.295" height="139.712" rx="8.75473" transform="matrix(0.857418 0.51462 -2.11919e-08 1 315.623 309.771)" fill="#F4F5FB"/>
<rect width="129.342" height="12.563" rx="6.28148" transform="matrix(0.857418 0.51462 2.11919e-08 -1 361.04 378.281)" fill="#CFD9E9"/>
<rect width="190.076" height="12.563" rx="6.28148" transform="matrix(0.857418 0.51462 2.11919e-08 -1 362.969 415.374)" fill="#CFD9E9"/>
<rect width="103.473" height="12.563" rx="6.28148" transform="matrix(0.857418 0.51462 2.11919e-08 -1 361.04 452.467)" fill="#CFD9E9"/>
<rect width="23.3766" height="24.0602" rx="2.18868" transform="matrix(0.857418 0.51462 2.11919e-08 -1 334.039 365.718)" fill="#FF4336"/>
<rect width="11.0048" height="11.3266" rx="5.50242" transform="matrix(0.857418 0.51462 2.11919e-08 -1 559.696 494.338)" fill="#CFD9E9"/>
<rect width="11.0048" height="11.3266" rx="5.50242" transform="matrix(0.857418 0.51462 2.11919e-08 -1 557.768 528.423)" fill="#CFD9E9"/>
<rect width="11.0048" height="11.3266" rx="5.50242" transform="matrix(0.857418 0.51462 2.11919e-08 -1 557.768 565.516)" fill="#CFD9E9"/>
<rect width="23.3766" height="24.0602" rx="2.18868" transform="matrix(0.857418 0.51462 2.11919e-08 -1 335.004 400.806)" fill="#FF4336"/>
<rect width="23.3766" height="24.0602" rx="2.18868" transform="matrix(0.857418 0.51462 2.11919e-08 -1 335.004 438.901)" fill="#FF4336"/>
<rect width="23.3766" height="24.0602" rx="2.18868" transform="matrix(0.857418 0.51462 2.11919e-08 -1 332.109 367.723)" fill="#FF8375"/>
<rect width="23.3766" height="24.0602" rx="2.18868" transform="matrix(0.857418 0.51462 2.11919e-08 -1 332.109 402.102)" fill="#FF8375"/>
<g clip-path="url(#clip0_2541_8610)">
<rect x="0.438452" y="0.774521" width="10.6656" height="10.6656" rx="0.949675" transform="matrix(0.857418 0.51462 -2.11919e-08 1 338.563 387.899)" stroke="white" stroke-width="1.02273"/>
<path d="M342.867 395.279L342.112 394.826C341.705 394.582 341.309 394.19 340.984 393.711L340.38 392.819" stroke="white" stroke-width="1.02273" stroke-linecap="round"/>
<path d="M342.867 396.89L342.205 396.493C341.913 396.318 341.626 396.066 341.365 395.758L340.656 394.919" stroke="white" stroke-width="1.02273" stroke-linecap="round"/>
<path d="M342.867 398.502L342.451 398.252C342.279 398.149 342.108 398.019 341.942 397.865L341.209 397.184" stroke="white" stroke-width="1.02273" stroke-linecap="round"/>
<path d="M343.973 395.942L344.728 396.396C345.135 396.64 345.53 396.723 345.856 396.634L346.46 396.468" stroke="white" stroke-width="1.02273" stroke-linecap="round"/>
<path d="M343.973 397.554L344.635 397.951C344.926 398.126 345.214 398.22 345.475 398.224L346.184 398.236" stroke="white" stroke-width="1.02273" stroke-linecap="round"/>
<path d="M343.973 399.165L344.389 399.415C344.561 399.518 344.732 399.594 344.898 399.639L345.631 399.838" stroke="white" stroke-width="1.02273" stroke-linecap="round"/>
<path d="M343.42 393.999L343.42 399.478" stroke="white" stroke-width="1.02273" stroke-linecap="round"/>
</g>
<rect width="23.3766" height="24.0602" rx="2.18868" transform="matrix(0.857418 0.51462 2.11919e-08 -1 332.109 439.904)" fill="#FF8375"/>
<g clip-path="url(#clip1_2541_8610)">
<rect x="0.492976" y="0.870837" width="11.9919" height="5.421" rx="2.7105" transform="matrix(0.857418 0.51462 -2.11919e-08 1 335.442 354.653)" stroke="white" stroke-width="1.14991"/>
<path d="M341.147 358.948L343.823 360.554C345.107 361.325 346.147 363.163 346.147 364.66C346.147 366.157 345.107 366.746 343.823 365.975L341.147 364.369L341.147 358.948Z" stroke="white" stroke-width="1.14991"/>
</g>
<g clip-path="url(#clip2_2541_8610)">
<path fill-rule="evenodd" clip-rule="evenodd" d="M348.503 437.399C348.503 435.213 345.695 431.753 342.235 429.677C338.775 427.6 335.967 427.689 335.967 429.875C335.967 432.061 338.775 435.52 342.235 437.597C345.695 439.674 348.503 439.585 348.503 437.399ZM346.6 437.3L347.081 435.464L346.689 435.304L346.601 435.609C346.566 435.434 346.516 435.293 346.449 435.186C346.383 435.079 346.299 434.995 346.199 434.935C346.032 434.835 345.853 434.815 345.665 434.878C345.423 434.954 345.224 435.129 345.067 435.404C344.91 435.678 344.832 435.982 344.832 436.314C344.832 436.535 344.875 436.735 344.962 436.914C345.049 437.092 345.153 437.218 345.272 437.29C345.397 437.365 345.525 437.39 345.654 437.365C345.835 437.332 346.033 437.201 346.248 436.973L346.197 437.177C346.161 437.323 346.142 437.447 346.142 437.549C346.142 437.635 346.16 437.71 346.195 437.776C346.231 437.842 346.284 437.897 346.354 437.939C346.456 438 346.567 438.01 346.687 437.968C346.807 437.926 346.924 437.831 347.037 437.681L346.953 437.556C346.846 437.682 346.76 437.756 346.696 437.778C346.662 437.79 346.634 437.79 346.613 437.778C346.593 437.766 346.577 437.747 346.563 437.72C346.547 437.685 346.539 437.651 346.539 437.618C346.539 437.599 346.541 437.577 346.546 437.553L346.6 437.3ZM345.868 435.088C345.987 435.033 346.098 435.038 346.204 435.101C346.297 435.157 346.371 435.241 346.425 435.353C346.479 435.465 346.507 435.61 346.507 435.787C346.507 436.257 346.366 436.632 346.085 436.91C345.875 437.12 345.68 437.171 345.501 437.064C345.429 437.02 345.365 436.941 345.309 436.825C345.253 436.708 345.225 436.579 345.225 436.437C345.225 436.155 345.29 435.879 345.421 435.609C345.552 435.338 345.701 435.165 345.868 435.088ZM344.931 434.25L344.887 434.43L344.527 434.214L344.256 435.421C344.136 435.952 344.016 436.346 343.894 436.604C343.722 436.966 343.536 437.176 343.337 437.234C343.186 437.279 343.035 437.257 342.884 437.166C342.785 437.107 342.701 437.019 342.632 436.902C342.582 436.82 342.556 436.736 342.556 436.653C342.556 436.586 342.577 436.54 342.619 436.516C342.661 436.492 342.712 436.499 342.773 436.535C342.817 436.562 342.854 436.602 342.885 436.655C342.915 436.709 342.93 436.759 342.93 436.805C342.93 436.851 342.913 436.883 342.879 436.902C342.852 436.916 342.839 436.93 342.839 436.945C342.839 436.963 342.845 436.981 342.857 436.999C342.871 437.022 342.894 437.043 342.926 437.062C342.996 437.105 343.071 437.121 343.149 437.111C343.227 437.102 343.296 437.059 343.357 436.984C343.417 436.909 343.475 436.782 343.529 436.604C343.552 436.53 343.614 436.278 343.714 435.847L344.143 433.983L343.714 433.726L343.748 433.539C343.885 433.621 343.98 433.666 344.034 433.675C344.088 433.683 344.138 433.667 344.183 433.626C344.229 433.586 344.287 433.494 344.36 433.352C344.457 433.159 344.55 433.021 344.638 432.936C344.76 432.823 344.887 432.76 345.021 432.748C345.155 432.736 345.281 432.764 345.399 432.835C345.524 432.91 345.625 433.011 345.7 433.136C345.775 433.262 345.813 433.372 345.813 433.466C345.813 433.539 345.794 433.589 345.757 433.616C345.719 433.644 345.67 433.64 345.611 433.605C345.56 433.574 345.519 433.53 345.487 433.473C345.454 433.416 345.439 433.362 345.439 433.31C345.439 433.276 345.449 433.242 345.471 433.205C345.492 433.169 345.503 433.143 345.503 433.126C345.503 433.097 345.496 433.071 345.481 433.047C345.46 433.013 345.428 432.984 345.387 432.959C345.284 432.897 345.191 432.883 345.109 432.918C344.999 432.962 344.9 433.076 344.813 433.26C344.768 433.357 344.687 433.614 344.569 434.032L344.931 434.249L344.931 434.25ZM342.713 432.842L341.863 432.508L341.88 432.633C341.972 432.67 342.035 432.698 342.07 432.719C342.124 432.752 342.167 432.795 342.2 432.847C342.225 432.887 342.237 432.926 342.237 432.963C342.237 433.06 342.211 433.204 342.158 433.399L341.703 435.071L342.079 435.297L342.158 434.95C342.168 434.908 342.207 434.788 342.277 434.592C342.326 434.448 342.385 434.328 342.454 434.231C342.613 434.001 342.761 433.825 342.898 433.702C342.985 433.621 343.049 433.578 343.092 433.575C343.117 433.572 343.143 433.58 343.171 433.597C343.189 433.607 343.204 433.625 343.218 433.65C343.229 433.669 343.236 433.7 343.24 433.741C343.246 433.81 343.263 433.868 343.29 433.916C343.317 433.963 343.35 433.998 343.388 434.021C343.461 434.065 343.518 434.052 343.558 433.982C343.613 433.89 343.642 433.776 343.642 433.638C343.642 433.561 343.626 433.492 343.595 433.433C343.564 433.374 343.521 433.327 343.467 433.295C343.383 433.245 343.275 433.251 343.142 433.313C342.907 433.42 342.646 433.7 342.358 434.152L342.713 432.842ZM340.086 432.921C340.075 433.019 340.069 433.102 340.069 433.17C340.069 433.356 340.121 433.546 340.224 433.738C340.328 433.931 340.454 434.072 340.601 434.16C340.719 434.231 340.833 434.268 340.942 434.273C341.052 434.277 341.214 434.238 341.429 434.156L341.481 434.278C341.092 434.535 340.72 434.558 340.367 434.346C340.127 434.202 339.947 433.998 339.825 433.732C339.703 433.467 339.643 433.218 339.643 432.987C339.643 432.675 339.718 432.402 339.869 432.167C340.021 431.932 340.21 431.793 340.439 431.749C340.667 431.705 340.902 431.756 341.143 431.901C341.317 432.005 341.446 432.127 341.53 432.268C341.614 432.408 341.656 432.539 341.656 432.663C341.656 432.836 341.602 432.97 341.493 433.063C341.35 433.184 341.14 433.225 340.862 433.186C340.678 433.162 340.42 433.073 340.086 432.921ZM340.103 432.778C340.347 432.888 340.544 432.946 340.697 432.952C340.9 432.959 341.051 432.912 341.152 432.813C341.253 432.714 341.303 432.592 341.303 432.448C341.303 432.36 341.281 432.276 341.238 432.196C341.194 432.116 341.132 432.051 341.052 432.003C340.884 431.902 340.707 431.909 340.519 432.023C340.331 432.136 340.192 432.388 340.103 432.778ZM338.802 433.223C338.977 433.205 339.149 433.117 339.32 432.959L339.248 432.834C339.094 432.953 338.955 433.015 338.831 433.021C338.707 433.027 338.582 432.992 338.455 432.916C338.291 432.817 338.161 432.677 338.066 432.496C337.971 432.314 337.923 432.117 337.923 431.904C337.923 431.582 337.991 431.301 338.125 431.06C338.237 430.862 338.372 430.738 338.529 430.689C338.687 430.64 338.846 430.663 339.007 430.76C339.095 430.812 339.162 430.873 339.21 430.944C339.241 430.991 339.256 431.037 339.256 431.081C339.256 431.104 339.252 431.123 339.244 431.139C339.236 431.155 339.212 431.175 339.174 431.199C339.135 431.223 339.11 431.248 339.097 431.274C339.085 431.3 339.079 431.333 339.079 431.372C339.079 431.435 339.096 431.498 339.129 431.559C339.163 431.621 339.205 431.668 339.256 431.698C339.323 431.739 339.38 431.737 339.426 431.693C339.488 431.639 339.52 431.547 339.52 431.418C339.52 431.28 339.475 431.137 339.387 430.988C339.298 430.841 339.164 430.712 338.985 430.605C338.757 430.468 338.524 430.425 338.287 430.476C338.049 430.526 337.86 430.664 337.72 430.889C337.579 431.114 337.509 431.386 337.509 431.706C337.509 431.988 337.574 432.252 337.705 432.497C337.836 432.743 338.017 432.935 338.251 433.075C338.444 433.191 338.628 433.241 338.802 433.223Z" fill="white"/>
</g>
<defs>
<clipPath id="clip0_2541_8610">
<rect width="13.0041" height="13.3843" fill="white" transform="matrix(0.857418 0.51462 -2.11919e-08 1 337.51 386.374)"/>
</clipPath>
<clipPath id="clip1_2541_8610">
<rect width="14.6212" height="15.0487" fill="white" transform="matrix(0.857418 0.51462 -2.11919e-08 1 335.004 349.972)"/>
</clipPath>
<clipPath id="clip2_2541_8610">
<rect width="14.6212" height="15.0487" fill="white" transform="matrix(0.857418 0.51462 -2.11919e-08 1 335.967 422.152)"/>
</clipPath>
</defs>
</svg>
