<svg width="800" height="800" viewBox="0 0 800 800" fill="none" xmlns="http://www.w3.org/2000/svg">
<rect width="384.625" height="384.625" rx="93" transform="matrix(0.866025 0.5 -0.866025 0.5 399.985 394.749)" fill="#F6F9FE"/>
<path d="M157.778 382.413C157.778 388.113 153.844 390.463 148.991 387.661C144.138 384.859 140.204 377.967 140.204 372.267C140.204 366.567 144.138 364.218 148.991 367.019C153.844 369.821 157.778 376.713 157.778 382.413Z" fill="#0066FF"/>
<rect width="229.994" height="14.5515" transform="matrix(0.866025 0.5 -2.20305e-08 1 275.229 240.93)" fill="#DBE9FE"/>
<rect width="195.627" height="14.5515" transform="matrix(0.866025 0.5 -2.20305e-08 1 275.229 294.732)" fill="#DBE9FE"/>
<rect width="247.177" height="14.5515" transform="matrix(0.866025 0.5 -2.20305e-08 1 275.229 322.205)" fill="#DBE9FE"/>
<path fill-rule="evenodd" clip-rule="evenodd" d="M586.536 217.58C578.347 212.121 571.534 214.657 570.101 223.045C563.099 220.771 557.971 225.096 557.971 234.279C557.971 244.906 564.838 258.183 573.53 264.69V265.104L599.479 282.403V282.001C608.25 287.237 615.206 283.132 615.206 272.436C615.206 263.204 610.024 251.971 602.964 244.916C601.519 234.628 594.713 223.031 586.536 217.58Z" fill="#0066FF"/>
<rect width="64.5345" height="21.5115" rx="4" transform="matrix(0.866025 0.5 -2.20305e-08 1 103.049 41.5115)" fill="#0066FF"/>
<rect width="64.5345" height="21.5115" rx="4" transform="matrix(-5.98857e-08 1 -0.866025 -0.5 140.305 41.5094)" fill="#0066FF"/>
<rect width="286.782" height="409.705" rx="6.12888" transform="matrix(0.866025 0.5 -2.20305e-08 1 259.201 59.3467)" fill="url(#paint0_linear_2541_10698)" stroke="#0066FF" stroke-width="1.22578" stroke-linecap="round" stroke-dasharray="2.35 2.35"/>
<path d="M377.105 343.665C376.812 343.496 376.575 343.633 376.575 343.972C376.575 344.31 376.812 344.722 377.105 344.891L377.105 343.665ZM583.768 253.642L583.768 457.466L584.83 458.079L584.83 254.255L583.768 253.642ZM578.991 460.224L377.105 343.665L377.105 344.891L578.991 461.45L578.991 460.224ZM583.768 457.466C583.768 460.512 581.629 461.747 578.991 460.224L578.991 461.45C582.216 463.311 584.83 461.802 584.83 458.079L583.768 457.466Z" fill="#0066FF"/>
<path d="M271.75 375.893L154.616 308.265C151.684 306.573 149.308 307.945 149.308 311.33L149.308 377.577" stroke="#0066FF" stroke-width="1.22578"/>
<path d="M130.992 68.5044L130.992 248.165C130.992 251.55 133.369 255.666 136.3 257.358L358.749 385.789" stroke="#0066FF" stroke-width="1.22578"/>
<rect x="0.433013" y="0.75" width="285.782" height="408.705" rx="5.62888" transform="matrix(0.866025 0.5 -2.20305e-08 1 176.839 86.6033)" fill="url(#paint1_linear_2541_10698)" stroke="url(#paint2_linear_2541_10698)"/>
<rect width="81.0117" height="14.5515" transform="matrix(0.866025 0.5 -2.20305e-08 1 192.856 127.769)" fill="#CDD1D8"/>
<rect width="81.0117" height="14.5515" transform="matrix(0.866025 0.5 -2.20305e-08 1 276.373 101.702)" fill="#DBE9FE"/>
<rect width="81.0117" height="14.5515" transform="matrix(0.866025 0.5 -2.20305e-08 1 417.173 176.108)" fill="#DBE9FE"/>
<rect width="47.5849" height="14.5515" transform="matrix(0.866025 0.5 -2.20305e-08 1 276.373 129.175)" fill="#DBE9FE"/>
<rect width="81.0117" height="14.5515" transform="matrix(0.866025 0.5 -2.20305e-08 1 326.156 204.943)" fill="#CDD1D8"/>
<g clip-path="url(#clip0_2541_10698)">
<path d="M192.573 452.463L192.573 487.265ZM194.628 454.441L195.998 455.232ZM197.368 456.022L198.738 456.813ZM200.108 457.604L201.478 458.395ZM202.848 459.186L204.218 459.977ZM205.588 460.768L206.958 461.559ZM208.328 462.35L209.698 463.141ZM211.068 463.932L212.438 464.723ZM213.808 465.514L215.177 466.305ZM216.547 467.096L217.917 467.887ZM219.287 468.678L220.657 469.469ZM195.998 456.813L200.108 459.186ZM201.478 459.977L204.218 461.559ZM206.958 463.141L208.328 463.932ZM211.068 465.514L212.438 466.305ZM216.547 468.678L222.027 471.841ZM194.628 457.604L195.998 458.395ZM197.368 459.186L198.738 459.977ZM202.848 462.35L204.218 463.141ZM206.958 464.723L208.328 465.514ZM212.438 467.887L215.177 469.469ZM217.917 471.05L220.657 472.632ZM200.108 462.35L201.478 463.141ZM202.848 463.932L205.588 465.514ZM209.698 467.887L211.068 468.678ZM215.177 471.05L217.917 472.632ZM219.287 473.423L222.027 475.005ZM193.258 459.977L194.628 460.768ZM195.998 461.559L200.108 463.932ZM201.478 464.723L204.218 466.305ZM205.588 467.096L206.958 467.887ZM208.328 468.678L209.698 469.469ZM211.068 470.259L212.438 471.05ZM213.808 471.841L215.177 472.632ZM217.917 474.214L220.657 475.796ZM193.258 461.559L197.368 463.932ZM198.738 464.723L201.478 466.305ZM204.218 467.887L206.958 469.469ZM208.328 470.259L209.698 471.05ZM212.438 472.632L213.808 473.423ZM217.917 475.796L222.027 478.169ZM195.998 464.723L202.848 468.678ZM204.218 469.469L206.958 471.05ZM209.698 472.632L211.068 473.423ZM212.438 474.214L216.547 476.587ZM217.917 477.378L220.657 478.96ZM193.258 464.723L195.998 466.305ZM198.738 467.887L201.478 469.469ZM202.848 470.259L204.218 471.05ZM205.588 471.841L208.328 473.423ZM209.698 474.214L211.068 475.005ZM212.438 475.796L215.177 477.378ZM217.917 478.96L222.027 481.333ZM193.258 466.305L195.998 467.887ZM197.368 468.678L198.738 469.469ZM204.218 472.632L205.588 473.423ZM208.328 475.005L209.698 475.796ZM212.438 477.378L213.808 478.169ZM215.177 478.96L219.287 481.333ZM193.258 467.887L194.628 468.678ZM195.998 469.469L200.108 471.841ZM204.218 474.214L209.698 477.378ZM212.438 478.96L215.177 480.542ZM217.917 482.124L222.027 484.497ZM193.258 469.469L195.998 471.05ZM197.368 471.841L198.738 472.632ZM202.848 475.005L208.328 478.169ZM215.177 482.124L219.287 484.497ZM193.258 471.05L194.628 471.841ZM197.368 473.423L198.738 474.214ZM202.848 476.587L206.958 478.96ZM208.328 479.751L212.438 482.124ZM219.287 486.078L222.027 487.66ZM194.628 473.423L195.998 474.214ZM201.478 477.378L202.848 478.169ZM204.218 478.96L205.588 479.751ZM208.328 481.333L209.698 482.124ZM212.438 483.706L213.808 484.497ZM215.177 485.287L216.547 486.078ZM217.917 486.869L220.657 488.451ZM193.258 474.214L200.108 478.169ZM206.958 482.124L208.328 482.915ZM211.068 484.497L215.177 486.869ZM217.917 488.451L222.027 490.824ZM193.258 475.796L197.368 478.169ZM202.848 481.333L204.218 482.124ZM205.588 482.915L206.958 483.706ZM208.328 484.497L220.657 491.615ZM193.258 477.378L194.628 478.169ZM197.368 479.751L198.738 480.542ZM201.478 482.124L204.218 483.706ZM205.588 484.497L206.958 485.287ZM208.328 486.078L212.438 488.451ZM213.808 489.242L216.547 490.824ZM219.287 492.406L222.027 493.988ZM193.258 478.96L197.368 481.333ZM200.108 482.915L205.588 486.078ZM206.958 486.869L208.328 487.66ZM213.808 490.824L217.917 493.197ZM219.287 493.988L220.657 494.779ZM193.258 480.542L195.998 482.124ZM197.368 482.915L198.738 483.706ZM201.478 485.287L202.848 486.078ZM205.588 487.66L212.438 491.615ZM213.808 492.406L215.177 493.197ZM216.547 493.988L222.027 497.152ZM193.258 482.124L197.368 484.497ZM200.108 486.078L201.478 486.869ZM202.848 487.66L204.218 488.451ZM205.588 489.242L208.328 490.824ZM211.068 492.406L215.177 494.779ZM193.258 483.706L195.998 485.287ZM197.368 486.078L201.478 488.451ZM204.218 490.033L205.588 490.824ZM206.958 491.615L208.328 492.406ZM209.698 493.197L211.068 493.988ZM212.438 494.779L215.177 496.361ZM217.917 497.943L222.027 500.315ZM195.998 486.869L200.108 489.242ZM201.478 490.033L202.848 490.824ZM204.218 491.615L206.958 493.197ZM208.328 493.988L211.068 495.57ZM216.547 498.734L217.917 499.524ZM191.888 486.078L222.027 503.479Z" fill="#CDD1D8"/>
<path d="M192.573 452.463L192.573 487.265M194.628 454.441L195.998 455.232M197.368 456.022L198.738 456.813M200.108 457.604L201.478 458.395M202.848 459.186L204.218 459.977M205.588 460.768L206.958 461.559M208.328 462.35L209.698 463.141M211.068 463.932L212.438 464.723M213.808 465.514L215.177 466.305M216.547 467.096L217.917 467.887M219.287 468.678L220.657 469.469M195.998 456.813L200.108 459.186M201.478 459.977L204.218 461.559M206.958 463.141L208.328 463.932M211.068 465.514L212.438 466.305M216.547 468.678L222.027 471.841M194.628 457.604L195.998 458.395M197.368 459.186L198.738 459.977M202.848 462.35L204.218 463.141M206.958 464.723L208.328 465.514M212.438 467.887L215.177 469.469M217.917 471.05L220.657 472.632M200.108 462.35L201.478 463.141M202.848 463.932L205.588 465.514M209.698 467.887L211.068 468.678M215.177 471.05L217.917 472.632M219.287 473.423L222.027 475.005M193.258 459.977L194.628 460.768M195.998 461.559L200.108 463.932M201.478 464.723L204.218 466.305M205.588 467.096L206.958 467.887M208.328 468.678L209.698 469.469M211.068 470.259L212.438 471.05M213.808 471.841L215.177 472.632M217.917 474.214L220.657 475.796M193.258 461.559L197.368 463.932M198.738 464.723L201.478 466.305M204.218 467.887L206.958 469.469M208.328 470.259L209.698 471.05M212.438 472.632L213.808 473.423M217.917 475.796L222.027 478.169M195.998 464.723L202.848 468.678M204.218 469.469L206.958 471.05M209.698 472.632L211.068 473.423M212.438 474.214L216.547 476.587M217.917 477.378L220.657 478.96M193.258 464.723L195.998 466.305M198.738 467.887L201.478 469.469M202.848 470.259L204.218 471.05M205.588 471.841L208.328 473.423M209.698 474.214L211.068 475.005M212.438 475.796L215.177 477.378M217.917 478.96L222.027 481.333M193.258 466.305L195.998 467.887M197.368 468.678L198.738 469.469M204.218 472.632L205.588 473.423M208.328 475.005L209.698 475.796M212.438 477.378L213.808 478.169M215.177 478.96L219.287 481.333M193.258 467.887L194.628 468.678M195.998 469.469L200.108 471.841M204.218 474.214L209.698 477.378M212.438 478.96L215.177 480.542M217.917 482.124L222.027 484.497M193.258 469.469L195.998 471.05M197.368 471.841L198.738 472.632M202.848 475.005L208.328 478.169M215.177 482.124L219.287 484.497M193.258 471.05L194.628 471.841M197.368 473.423L198.738 474.214M202.848 476.587L206.958 478.96M208.328 479.751L212.438 482.124M219.287 486.078L222.027 487.66M194.628 473.423L195.998 474.214M201.478 477.378L202.848 478.169M204.218 478.96L205.588 479.751M208.328 481.333L209.698 482.124M212.438 483.706L213.808 484.497M215.177 485.287L216.547 486.078M217.917 486.869L220.657 488.451M193.258 474.214L200.108 478.169M206.958 482.124L208.328 482.915M211.068 484.497L215.177 486.869M217.917 488.451L222.027 490.824M193.258 475.796L197.368 478.169M202.848 481.333L204.218 482.124M205.588 482.915L206.958 483.706M208.328 484.497L220.657 491.615M193.258 477.378L194.628 478.169M197.368 479.751L198.738 480.542M201.478 482.124L204.218 483.706M205.588 484.497L206.958 485.287M208.328 486.078L212.438 488.451M213.808 489.242L216.547 490.824M219.287 492.406L222.027 493.988M193.258 478.96L197.368 481.333M200.108 482.915L205.588 486.078M206.958 486.869L208.328 487.66M213.808 490.824L217.917 493.197M219.287 493.988L220.657 494.779M193.258 480.542L195.998 482.124M197.368 482.915L198.738 483.706M201.478 485.287L202.848 486.078M205.588 487.66L212.438 491.615M213.808 492.406L215.177 493.197M216.547 493.988L222.027 497.152M193.258 482.124L197.368 484.497M200.108 486.078L201.478 486.869M202.848 487.66L204.218 488.451M205.588 489.242L208.328 490.824M211.068 492.406L215.177 494.779M193.258 483.706L195.998 485.287M197.368 486.078L201.478 488.451M204.218 490.033L205.588 490.824M206.958 491.615L208.328 492.406M209.698 493.197L211.068 493.988M212.438 494.779L215.177 496.361M217.917 497.943L222.027 500.315M195.998 486.869L200.108 489.242M201.478 490.033L202.848 490.824M204.218 491.615L206.958 493.197M208.328 493.988L211.068 495.57M216.547 498.734L217.917 499.524M191.888 486.078L222.027 503.479" stroke="#CDD1D8" stroke-width="1.38191"/>
</g>
<rect width="171.745" height="25.7342" transform="matrix(0.866025 0.5 -2.20305e-08 1 237.452 481.747)" fill="#F5F6F7"/>
<rect width="51.8475" height="14.5515" transform="matrix(0.866025 0.5 -2.20305e-08 1 192.856 154.429)" fill="#CDD1D8"/>
<rect width="51.8475" height="14.5515" transform="matrix(0.866025 0.5 -2.20305e-08 1 192.856 154.429)" fill="#CDD1D8"/>
<rect width="184.707" height="14.5515" transform="matrix(0.866025 0.5 -2.20305e-08 1 213.903 294.528)" fill="#F5F6F7"/>
<rect width="160.403" height="14.5515" transform="matrix(0.866025 0.5 -2.20305e-08 1 213.339 324.482)" fill="#F5F6F7"/>
<rect width="196.048" height="14.5515" transform="matrix(0.866025 0.5 -2.20305e-08 1 213.337 356.534)" fill="#F5F6F7"/>
<rect width="136.1" height="14.5515" transform="matrix(0.866025 0.5 -2.20305e-08 1 213.337 388.586)" fill="#F5F6F7"/>
<rect width="11.3232" height="12.7119" rx="2.45155" transform="matrix(-0.866025 -0.5 -2.20305e-08 1 204.904 289.182)" fill="#0066FF"/>
<rect width="11.3232" height="12.7119" rx="2.45155" transform="matrix(-0.866025 -0.5 -2.20305e-08 1 204.904 316.555)" fill="#0066FF"/>
<rect width="11.3232" height="12.7119" rx="2.45155" transform="matrix(-0.866025 -0.5 -2.20305e-08 1 204.904 343.929)" fill="#0066FF"/>
<rect width="11.3232" height="12.7119" rx="2.45155" transform="matrix(-0.866025 -0.5 -2.20305e-08 1 204.904 371.302)" fill="#0066FF"/>
<rect width="239.795" height="1.27961" transform="matrix(0.866025 0.5 2.20305e-08 -1 192.856 242.705)" fill="#0066FF"/>
<rect width="239.795" height="1.27961" transform="matrix(0.866025 0.5 2.20305e-08 -1 192.856 242.705)" fill="#0066FF"/>
<rect width="239.795" height="1.27961" transform="matrix(0.866025 0.5 2.20305e-08 -1 192.856 439.148)" fill="#CDD1D8"/>
<rect width="8.54306" height="27.7649" transform="matrix(0.866025 0.5 -2.20305e-08 1 197.066 190.911)" fill="#CDD1D8"/>
<rect width="8.54306" height="27.7649" transform="matrix(0.866025 0.5 -2.20305e-08 1 230.359 210.133)" fill="#CDD1D8"/>
<rect width="4.27153" height="27.7649" transform="matrix(0.866025 0.5 -2.20305e-08 1 206.313 196.251)" fill="#CDD1D8"/>
<rect width="4.27153" height="27.7649" transform="matrix(0.866025 0.5 -2.20305e-08 1 222.96 205.862)" fill="#CDD1D8"/>
<rect width="2.13576" height="27.7649" transform="matrix(0.866025 0.5 -2.20305e-08 1 213.712 200.522)" fill="#CDD1D8"/>
<rect width="2.13576" height="27.7649" transform="matrix(0.866025 0.5 -2.20305e-08 1 217.413 202.658)" fill="#CDD1D8"/>
<rect width="8.54306" height="27.7649" transform="matrix(0.866025 0.5 -2.20305e-08 1 258.805 227.394)" fill="#CDD1D8"/>
<rect width="8.54306" height="27.7649" transform="matrix(0.866025 0.5 -2.20305e-08 1 292.098 246.615)" fill="#CDD1D8"/>
<rect width="4.27153" height="27.7649" transform="matrix(0.866025 0.5 -2.20305e-08 1 268.053 232.733)" fill="#CDD1D8"/>
<rect width="4.27153" height="27.7649" transform="matrix(0.866025 0.5 -2.20305e-08 1 284.698 242.344)" fill="#CDD1D8"/>
<rect width="2.13576" height="27.7649" transform="matrix(0.866025 0.5 -2.20305e-08 1 275.451 237.005)" fill="#CDD1D8"/>
<rect width="2.13576" height="27.7649" transform="matrix(0.866025 0.5 -2.20305e-08 1 279.15 239.14)" fill="#CDD1D8"/>
<defs>
<linearGradient id="paint0_linear_2541_10698" x1="143.391" y1="0" x2="143.391" y2="409.705" gradientUnits="userSpaceOnUse">
<stop stop-color="#0066FF" stop-opacity="0.07"/>
<stop offset="1" stop-color="#D9D9D9" stop-opacity="0"/>
</linearGradient>
<linearGradient id="paint1_linear_2541_10698" x1="-64.7658" y1="538.493" x2="242.549" y2="306.498" gradientUnits="userSpaceOnUse">
<stop stop-color="#F8F8F8"/>
<stop offset="1" stop-color="white"/>
</linearGradient>
<linearGradient id="paint2_linear_2541_10698" x1="143.391" y1="0" x2="142.579" y2="494.185" gradientUnits="userSpaceOnUse">
<stop stop-color="#F1F1F1"/>
<stop offset="1" stop-color="#ABB2BF" stop-opacity="0"/>
</linearGradient>
<clipPath id="clip0_2541_10698">
<rect width="37.9654" height="37.9654" fill="white" transform="matrix(0.866025 0.5 -2.20305e-08 1 190.518 449.695)"/>
</clipPath>
</defs>
</svg>
